{"_v":2,"glyphs":{"0":{"ha":559,"x_min":45,"x_max":514,"o":"m 45 359 l 45 359 q 45 532 103 628 q 161 724 281 724 l 281 724 q 393 724 453 629 q 514 533 514 358 l 514 358 q 514 182 453 86 q 391 -10 280 -10 l 280 -10 q 161 -10 103 88 q 45 186 45 359 z m 410 358 l 410 358 q 410 513 380 592 q 351 670 281 670 l 281 670 q 210 670 179 592 q 149 513 149 358 l 149 358 q 149 203 179 123 q 210 44 280 44 l 280 44 q 350 44 380 123 q 410 202 410 358 z"},"1":{"ha":559,"x_min":66,"x_max":477,"o":"m 96 0 l 96 42 l 163 42 q 210 42 228 59 q 245 77 245 114 l 245 114 l 245 639 q 200 585 172 560 q 144 535 116 535 l 116 535 q 94 535 80 550 q 66 565 66 589 l 66 589 q 98 597 132 614 q 165 631 212 666 l 212 666 l 282 718 l 346 718 l 346 114 q 346 77 364 59 q 382 42 428 42 l 428 42 l 477 42 l 477 0 l 96 0 z"},"2":{"ha":559,"x_min":51,"x_max":486,"o":"m 51 0 l 51 73 l 218 266 q 300 362 330 422 q 360 481 360 547 l 360 547 q 360 606 334 640 q 309 674 258 674 l 258 674 q 195 674 172 634 q 148 594 148 525 l 148 525 q 108 525 85 540 q 62 554 62 590 l 62 590 q 62 652 114 688 q 167 724 258 724 l 258 724 q 352 724 406 679 q 461 633 461 557 l 461 557 q 461 500 427 438 q 393 376 294 267 l 294 267 l 125 80 l 356 80 q 385 80 402 90 q 419 101 427 118 q 436 135 444 173 l 444 173 l 486 173 l 481 0 l 51 0 z"},"3":{"ha":559,"x_min":58,"x_max":501,"o":"m 58 101 l 58 101 q 58 131 75 148 q 92 165 121 165 l 121 165 q 121 110 156 77 q 190 44 248 44 l 248 44 q 314 44 355 83 q 397 121 397 205 l 397 205 q 397 269 348 307 q 299 344 216 344 l 216 344 l 184 344 l 184 395 l 216 395 q 285 395 329 438 q 373 482 373 550 l 373 550 q 373 674 266 674 l 266 674 q 203 674 179 634 q 156 594 156 525 l 156 525 q 116 525 93 540 q 70 554 70 590 l 70 590 q 70 652 123 688 q 175 724 266 724 l 266 724 q 363 724 420 681 q 476 639 476 565 l 476 565 q 476 499 431 448 q 387 397 316 381 l 316 381 q 406 371 453 325 q 501 278 501 204 l 501 204 q 501 128 463 81 q 426 33 368 11 q 310 -10 247 -10 l 247 -10 q 159 -10 109 20 q 58 50 58 101 z"},"4":{"ha":559,"x_min":17,"x_max":545,"o":"m 215 0 l 215 42 l 243 42 q 290 42 308 59 q 325 77 325 114 l 325 114 l 325 196 l 17 196 l 17 237 l 326 714 l 421 714 l 421 252 l 545 252 l 545 196 l 421 196 l 421 114 q 421 77 439 59 q 457 42 503 42 l 503 42 l 516 42 l 516 0 l 215 0 z m 89 252 l 325 252 l 325 437 q 325 558 332 644 l 332 644 q 322 625 291 571 q 260 518 242 490 l 242 490 l 89 252 z"},"5":{"ha":559,"x_min":55,"x_max":486,"o":"m 55 91 l 55 91 q 55 150 118 150 l 118 150 q 118 104 151 76 q 183 49 239 49 l 239 49 q 382 49 382 218 l 382 218 q 382 295 341 334 q 301 374 230 374 l 230 374 q 184 374 158 368 q 131 363 107 352 l 107 352 l 83 359 l 115 713 l 449 713 l 454 562 l 412 562 l 408 592 q 405 617 394 625 q 382 633 354 633 l 354 633 l 160 633 l 141 413 q 188 429 258 429 l 258 429 q 363 429 425 372 q 486 315 486 218 l 486 218 q 486 113 421 52 q 356 -10 244 -10 l 244 -10 q 156 -10 105 17 q 55 43 55 91 z"},"6":{"ha":559,"x_min":61,"x_max":508,"o":"m 61 360 l 61 360 q 61 458 90 541 q 119 624 178 674 q 237 724 322 724 l 322 724 q 396 724 441 695 q 487 666 487 619 l 487 619 q 487 590 467 575 q 447 559 410 559 l 410 559 q 410 612 389 644 q 368 676 322 676 l 322 676 q 174 676 164 382 l 164 382 q 227 434 307 434 l 307 434 q 399 434 454 379 q 508 324 508 229 l 508 229 q 508 119 450 55 q 392 -10 293 -10 l 293 -10 q 180 -10 121 86 q 61 183 61 360 z m 406 219 l 406 219 q 406 383 287 383 l 287 383 q 251 383 219 366 q 187 349 163 325 l 163 325 q 166 45 296 45 l 296 45 q 406 45 406 219 z"},"7":{"ha":559,"x_min":59,"x_max":511,"o":"m 190 0 l 426 633 l 163 633 q 109 633 105 582 l 105 582 l 101 532 l 59 532 l 64 713 l 511 713 l 511 684 l 265 0 l 190 0 z"},"8":{"ha":559,"x_min":46,"x_max":513,"o":"m 46 179 l 46 179 q 46 225 65 258 q 84 291 116 314 q 148 338 198 362 l 198 362 q 137 396 103 441 q 69 485 69 545 l 69 545 q 69 594 92 634 q 114 675 163 699 q 211 724 285 724 l 285 724 q 375 724 428 677 q 482 630 482 552 l 482 552 q 482 499 454 460 q 426 422 347 383 l 347 383 q 427 345 470 299 q 513 252 513 191 l 513 191 q 513 98 449 44 q 385 -10 273 -10 l 273 -10 q 169 -10 107 42 q 46 93 46 179 z m 393 554 l 393 554 q 393 612 363 644 q 333 677 279 677 l 279 677 q 226 677 194 644 q 163 612 163 557 l 163 557 q 163 510 192 476 q 220 442 298 406 l 298 406 q 350 432 372 464 q 393 497 393 554 z m 422 169 l 422 169 q 422 220 382 258 q 342 296 246 338 l 246 338 q 143 282 143 175 l 143 175 q 143 111 178 73 q 212 36 278 36 l 278 36 q 342 36 382 73 q 422 109 422 169 z"},"9":{"ha":559,"x_min":51,"x_max":498,"o":"m 82 75 l 82 75 q 82 93 91 106 q 100 119 112 123 l 112 123 q 146 44 228 44 l 228 44 q 310 44 350 117 q 390 190 395 343 l 395 343 q 371 313 333 294 q 296 275 248 275 l 248 275 q 155 275 103 329 q 51 383 51 478 l 51 478 q 51 589 109 657 q 168 724 265 724 l 265 724 q 377 724 438 636 q 498 548 498 388 l 498 388 q 498 278 470 188 q 441 97 381 43 q 320 -11 227 -11 l 227 -11 q 149 -11 115 14 q 82 39 82 75 z m 396 415 l 396 415 q 394 544 359 606 q 325 669 265 669 l 265 669 q 212 669 183 622 q 154 575 154 488 l 154 488 q 154 407 182 370 q 211 334 270 334 l 270 334 q 316 334 349 357 q 381 380 396 415 z"},"\r":{"ha":309,"x_min":0,"x_max":0,"o":""}," ":{"ha":309,"x_min":0,"x_max":0,"o":""},"അ":{"ha":1424,"x_min":42,"x_max":1383,"o":"m 1383 247 l 1383 247 q 1383 167 1354 110 q 1326 53 1279 23 q 1232 -6 1178 -6 l 1178 -6 q 1097 -6 1051 46 q 1004 98 1004 190 l 1004 190 q 1004 285 1057 355 q 1111 426 1202 453 l 1202 453 q 1146 500 1070 500 l 1070 500 q 990 500 936 441 q 882 382 882 296 l 882 296 l 882 0 l 786 0 l 786 293 q 786 347 760 394 q 734 441 683 470 q 633 500 563 500 l 563 500 q 599 475 618 442 q 637 409 637 373 l 637 373 q 637 283 549 260 l 549 260 l 549 255 q 596 249 624 216 q 652 184 652 137 l 652 137 q 652 73 606 34 q 560 -5 483 -5 l 483 -5 q 408 -5 359 30 q 310 66 287 123 q 264 180 264 247 l 264 247 q 264 329 295 394 q 326 458 381 499 l 381 499 l 352 500 q 283 500 226 470 q 168 440 134 383 q 100 326 100 250 l 100 250 q 100 170 137 110 q 173 50 235 11 l 235 11 q 221 -6 199 -6 l 199 -6 q 166 -6 129 28 q 92 63 67 122 q 42 181 42 251 l 42 251 q 42 342 83 412 q 125 482 196 521 q 268 560 354 560 l 354 560 q 415 560 469 544 l 469 544 q 518 560 570 560 l 570 560 q 660 560 736 521 q 813 481 851 417 l 851 417 q 884 482 948 521 q 1013 560 1088 560 l 1088 560 q 1172 560 1240 519 q 1307 478 1345 406 q 1383 334 1383 247 z m 444 233 l 444 233 l 444 280 q 491 280 518 303 q 545 325 545 370 l 545 370 q 545 405 526 434 q 507 464 466 481 l 466 481 q 398 452 360 390 q 322 328 322 247 l 322 247 q 322 159 362 106 q 402 54 469 54 l 469 54 q 511 54 535 76 q 558 98 558 137 l 558 137 q 558 185 526 209 q 495 233 444 233 z m 1290 248 l 1290 248 q 1290 339 1242 409 l 1242 409 q 1197 399 1156 370 q 1116 341 1090 296 q 1064 250 1064 192 l 1064 192 q 1064 129 1090 91 q 1116 54 1170 54 l 1170 54 q 1202 54 1229 75 q 1256 96 1273 139 q 1290 183 1290 248 z"},"ആ":{"ha":1620,"x_min":42,"x_max":1590,"o":"m 1590 135 l 1590 135 q 1590 44 1546 -25 q 1501 -95 1424 -133 q 1347 -170 1250 -170 l 1250 -170 q 1211 -170 1166 -163 q 1120 -155 1088 -139 q 1056 -123 1056 -99 l 1056 -99 q 1056 -93 1059 -86 l 1059 -86 q 1129 -107 1199 -107 l 1199 -107 q 1283 -107 1350 -76 q 1417 -45 1457 15 q 1496 76 1496 160 l 1496 160 q 1496 255 1457 318 q 1418 382 1346 403 l 1346 403 q 1383 333 1383 247 l 1383 247 q 1383 167 1354 110 q 1326 53 1279 23 q 1232 -6 1178 -6 l 1178 -6 q 1097 -6 1051 46 q 1004 98 1004 190 l 1004 190 q 1004 285 1057 355 q 1111 426 1202 453 l 1202 453 q 1146 500 1070 500 l 1070 500 q 990 500 936 441 q 882 382 882 296 l 882 296 l 882 0 l 786 0 l 786 293 q 786 347 760 394 q 734 441 683 470 q 633 500 563 500 l 563 500 q 599 475 618 442 q 637 409 637 373 l 637 373 q 637 283 549 260 l 549 260 l 549 255 q 596 249 624 216 q 652 184 652 137 l 652 137 q 652 73 606 34 q 560 -5 483 -5 l 483 -5 q 408 -5 359 30 q 310 66 287 123 q 264 180 264 247 l 264 247 q 264 329 295 394 q 326 458 381 499 l 381 499 l 352 500 q 283 500 226 470 q 168 440 134 383 q 100 326 100 250 l 100 250 q 100 170 137 110 q 173 50 235 11 l 235 11 q 221 -6 199 -6 l 199 -6 q 166 -6 129 28 q 92 63 67 122 q 42 181 42 251 l 42 251 q 42 342 83 412 q 125 482 196 521 q 268 560 354 560 l 354 560 q 415 560 469 544 l 469 544 q 518 560 570 560 l 570 560 q 660 560 736 521 q 813 481 851 417 l 851 417 q 884 482 948 521 q 1013 560 1088 560 l 1088 560 q 1153 560 1209 535 q 1265 509 1305 464 l 1305 464 q 1379 459 1444 421 q 1509 382 1550 310 q 1590 237 1590 135 z m 444 233 l 444 233 l 444 280 q 491 280 518 303 q 545 325 545 370 l 545 370 q 545 405 526 434 q 507 464 466 481 l 466 481 q 398 452 360 390 q 322 328 322 247 l 322 247 q 322 159 362 106 q 402 54 469 54 l 469 54 q 511 54 535 76 q 558 98 558 137 l 558 137 q 558 185 526 209 q 495 233 444 233 z m 1290 248 l 1290 248 q 1290 339 1242 409 l 1242 409 q 1197 399 1156 370 q 1116 341 1090 296 q 1064 250 1064 192 l 1064 192 q 1064 129 1090 91 q 1116 54 1170 54 l 1170 54 q 1202 54 1229 75 q 1256 96 1273 139 q 1290 183 1290 248 z"},"ഇ":{"ha":1011,"x_min":49,"x_max":962,"o":"m 52 -70 l 52 -70 q 52 -14 93 20 q 133 54 198 54 l 198 54 l 592 54 q 720 54 794 123 q 867 192 867 313 l 867 313 q 867 397 825 449 q 782 500 713 500 l 713 500 q 653 500 619 465 q 585 430 585 370 l 585 370 l 585 131 l 491 131 l 491 332 q 491 409 444 454 q 396 500 315 500 l 315 500 q 231 500 174 460 q 116 420 100 351 l 100 351 q 120 381 152 401 q 184 420 224 420 l 224 420 q 290 420 331 379 q 373 339 373 275 l 373 275 q 373 210 330 169 q 287 128 218 128 l 218 128 q 174 128 135 150 q 97 171 73 215 q 49 259 49 322 l 49 322 q 49 389 83 443 q 118 498 179 529 q 241 560 320 560 l 320 560 q 400 560 457 530 q 514 501 548 457 l 548 457 q 575 509 621 534 q 667 560 721 560 l 721 560 q 792 560 847 524 q 902 489 932 430 q 962 372 962 305 l 962 305 q 962 217 918 148 q 873 79 790 39 q 708 0 598 0 l 598 0 l 200 0 q 158 0 136 -17 q 115 -33 115 -61 l 115 -61 q 115 -86 138 -103 q 161 -119 206 -119 l 206 -119 l 951 -119 l 951 -201 l 231 -201 q 143 -201 98 -166 q 52 -130 52 -70 z m 287 275 l 287 275 q 287 315 264 340 q 242 365 207 365 l 207 365 q 136 365 98 281 l 98 281 q 108 236 138 211 q 167 186 204 186 l 204 186 q 243 186 265 211 q 287 236 287 275 z"},"ഈ":{"ha":1776,"x_min":49,"x_max":1735,"o":"m 52 -70 l 52 -70 q 52 -14 93 20 q 133 54 198 54 l 198 54 l 592 54 q 720 54 794 123 q 867 192 867 313 l 867 313 q 867 397 825 449 q 782 500 713 500 l 713 500 q 653 500 619 465 q 585 430 585 370 l 585 370 l 585 131 l 491 131 l 491 332 q 491 409 444 454 q 396 500 315 500 l 315 500 q 231 500 174 460 q 116 420 100 351 l 100 351 q 120 381 152 401 q 184 420 224 420 l 224 420 q 290 420 331 379 q 373 339 373 275 l 373 275 q 373 210 330 169 q 287 128 218 128 l 218 128 q 174 128 135 150 q 97 171 73 215 q 49 259 49 322 l 49 322 q 49 389 83 443 q 118 498 179 529 q 241 560 320 560 l 320 560 q 400 560 457 530 q 514 501 548 457 l 548 457 q 575 509 621 534 q 667 560 721 560 l 721 560 q 792 560 847 524 q 902 489 932 430 q 962 372 962 305 l 962 305 q 962 217 918 148 q 873 79 790 39 q 708 0 598 0 l 598 0 l 200 0 q 158 0 136 -17 q 115 -33 115 -61 l 115 -61 q 115 -86 138 -103 q 161 -119 206 -119 l 206 -119 l 951 -119 l 951 -201 l 231 -201 q 143 -201 98 -166 q 52 -130 52 -70 z m 287 275 l 287 275 q 287 315 264 340 q 242 365 207 365 l 207 365 q 136 365 98 281 l 98 281 q 108 236 138 211 q 167 186 204 186 l 204 186 q 243 186 265 211 q 287 236 287 275 z m 1735 322 l 1735 322 q 1735 227 1694 152 q 1653 78 1578 36 q 1503 -6 1405 -6 l 1405 -6 q 1342 -6 1304 5 q 1266 17 1250 33 q 1233 50 1233 67 l 1233 67 q 1233 78 1240 86 l 1240 86 q 1279 69 1311 61 q 1342 53 1385 53 l 1385 53 q 1462 53 1521 90 q 1579 128 1610 190 q 1642 253 1642 326 l 1642 326 q 1642 400 1608 450 q 1574 500 1522 500 l 1522 500 q 1474 500 1442 463 q 1411 427 1411 370 l 1411 370 l 1411 233 l 1316 233 l 1316 371 q 1316 429 1289 465 q 1261 500 1215 500 l 1215 500 q 1171 500 1143 467 q 1115 434 1115 385 l 1115 385 q 1115 340 1129 306 q 1144 272 1176 237 l 1176 237 q 1164 228 1148 228 l 1148 228 q 1125 228 1104 247 q 1083 267 1069 304 q 1055 340 1055 388 l 1055 388 q 1055 464 1102 512 q 1149 560 1227 560 l 1227 560 q 1277 560 1318 535 q 1359 511 1381 469 l 1381 469 q 1403 514 1443 537 q 1483 560 1533 560 l 1533 560 q 1597 560 1642 527 q 1688 494 1711 439 q 1735 385 1735 322 z"},"ഉ":{"ha":680,"x_min":49,"x_max":636,"o":"m 54 -71 l 54 -71 q 54 -12 95 21 q 136 54 205 54 l 205 54 l 314 54 q 419 54 479 115 q 540 177 540 282 l 540 282 q 540 384 483 442 q 425 500 325 500 l 325 500 q 235 500 175 460 q 115 420 102 351 l 102 351 q 121 382 153 401 q 185 420 225 420 l 225 420 q 291 420 332 379 q 374 339 374 275 l 374 275 q 374 210 331 169 q 288 128 219 128 l 219 128 q 167 128 128 154 q 89 180 69 222 q 49 265 49 314 l 49 314 q 49 384 83 440 q 118 496 182 528 q 246 560 331 560 l 331 560 q 422 560 491 524 q 561 488 598 425 q 636 362 636 283 l 636 283 q 636 198 596 134 q 557 69 489 35 q 420 0 335 0 l 335 0 l 200 0 q 161 0 139 -15 q 116 -30 116 -59 l 116 -59 q 116 -86 139 -103 q 162 -119 200 -119 l 200 -119 l 625 -119 l 625 -201 l 224 -201 q 146 -201 100 -166 q 54 -131 54 -71 z m 287 275 l 287 275 q 287 315 264 340 q 242 365 207 365 l 207 365 q 136 365 98 281 l 98 281 q 108 236 138 211 q 167 186 204 186 l 204 186 q 243 186 265 211 q 287 236 287 275 z"},"ഊ":{"ha":1445,"x_min":49,"x_max":1403,"o":"m 54 -71 l 54 -71 q 54 -12 95 21 q 136 54 205 54 l 205 54 l 314 54 q 419 54 479 115 q 540 177 540 282 l 540 282 q 540 384 483 442 q 425 500 325 500 l 325 500 q 235 500 175 460 q 115 420 102 351 l 102 351 q 121 382 153 401 q 185 420 225 420 l 225 420 q 291 420 332 379 q 374 339 374 275 l 374 275 q 374 210 331 169 q 288 128 219 128 l 219 128 q 167 128 128 154 q 89 180 69 222 q 49 265 49 314 l 49 314 q 49 384 83 440 q 118 496 182 528 q 246 560 331 560 l 331 560 q 422 560 491 524 q 561 488 598 425 q 636 362 636 283 l 636 283 q 636 198 596 134 q 557 69 489 35 q 420 0 335 0 l 335 0 l 200 0 q 161 0 139 -15 q 116 -30 116 -59 l 116 -59 q 116 -86 139 -103 q 162 -119 200 -119 l 200 -119 l 625 -119 l 625 -201 l 224 -201 q 146 -201 100 -166 q 54 -131 54 -71 z m 287 275 l 287 275 q 287 315 264 340 q 242 365 207 365 l 207 365 q 136 365 98 281 l 98 281 q 108 236 138 211 q 167 186 204 186 l 204 186 q 243 186 265 211 q 287 236 287 275 z m 1403 322 l 1403 322 q 1403 227 1363 152 q 1322 78 1247 36 q 1172 -6 1073 -6 l 1073 -6 q 1011 -6 972 5 q 934 17 918 33 q 902 50 902 67 l 902 67 q 902 78 908 86 l 908 86 q 947 69 979 61 q 1011 53 1053 53 l 1053 53 q 1131 53 1189 90 q 1248 128 1279 190 q 1310 253 1310 326 l 1310 326 q 1310 400 1276 450 q 1243 500 1191 500 l 1191 500 q 1142 500 1111 463 q 1080 427 1080 370 l 1080 370 l 1080 233 l 985 233 l 985 371 q 985 429 957 465 q 930 500 883 500 l 883 500 q 840 500 812 467 q 783 434 783 385 l 783 385 q 783 340 798 306 q 813 272 845 237 l 845 237 q 832 228 816 228 l 816 228 q 794 228 772 247 q 751 267 737 304 q 724 340 724 388 l 724 388 q 724 464 771 512 q 818 560 896 560 l 896 560 q 945 560 987 535 q 1028 511 1049 469 l 1049 469 q 1071 514 1111 537 q 1151 560 1202 560 l 1202 560 q 1265 560 1311 527 q 1356 494 1380 439 q 1403 385 1403 322 z"},"ഋ":{"ha":774,"x_min":32,"x_max":738,"o":"m 705 6 l 705 6 q 705 -66 620 -108 q 536 -150 387 -150 l 387 -150 q 240 -150 155 -108 q 70 -67 70 6 l 70 6 q 70 54 110 90 q 149 126 224 145 l 224 145 q 136 175 84 236 q 32 296 32 381 l 32 381 q 32 442 58 482 q 84 522 125 541 q 166 560 212 560 l 212 560 q 279 560 322 519 q 365 478 365 413 l 365 413 q 365 349 324 308 q 283 268 218 268 l 218 268 q 175 268 140 287 q 105 306 84 337 l 84 337 q 97 292 134 255 q 170 217 234 194 q 297 170 385 170 l 385 170 q 472 170 536 194 q 599 217 636 255 q 673 292 686 337 l 686 337 q 665 306 630 287 q 595 268 552 268 l 552 268 q 487 268 446 308 q 405 349 405 413 l 405 413 q 405 478 448 519 q 491 560 558 560 l 558 560 q 604 560 645 541 q 686 522 712 482 q 738 442 738 381 l 738 381 q 738 297 687 236 q 636 175 549 145 l 549 145 q 625 126 665 90 q 705 54 705 6 z m 82 406 l 82 406 q 120 322 190 322 l 190 322 q 226 322 248 348 q 271 373 271 412 l 271 412 q 271 451 249 477 q 227 502 188 502 l 188 502 q 151 502 122 477 q 92 451 82 406 z m 688 406 l 688 406 q 678 451 648 477 q 619 502 582 502 l 582 502 q 543 502 521 477 q 500 451 500 412 l 500 412 q 500 373 522 348 q 544 322 580 322 l 580 322 q 650 322 688 406 z m 609 6 l 609 6 q 609 53 549 81 q 488 109 387 109 l 387 109 q 286 109 226 81 q 166 53 166 6 l 166 6 q 166 -42 226 -70 q 287 -98 387 -98 l 387 -98 q 488 -98 549 -70 q 609 -42 609 6 z"},"ൠ":{"ha":770,"x_min":32,"x_max":738,"o":"m 705 6 l 705 6 q 705 -66 620 -108 q 536 -150 387 -150 l 387 -150 q 240 -150 155 -108 q 70 -67 70 6 l 70 6 q 70 54 110 90 q 149 126 224 145 l 224 145 q 136 175 84 236 q 32 296 32 381 l 32 381 q 32 442 58 482 q 84 522 125 541 q 166 560 212 560 l 212 560 q 279 560 322 519 q 365 478 365 413 l 365 413 q 365 349 324 308 q 283 268 218 268 l 218 268 q 175 268 140 287 q 105 306 84 337 l 84 337 q 97 292 134 255 q 170 217 234 194 q 297 170 385 170 l 385 170 q 472 170 536 194 q 599 217 636 255 q 673 292 686 337 l 686 337 q 665 306 630 287 q 595 268 552 268 l 552 268 q 487 268 446 308 q 405 349 405 413 l 405 413 q 405 478 448 519 q 491 560 558 560 l 558 560 q 604 560 645 541 q 686 522 712 482 q 738 442 738 381 l 738 381 q 738 297 687 236 q 636 175 549 145 l 549 145 q 625 126 665 90 q 705 54 705 6 z m 82 406 l 82 406 q 120 322 190 322 l 190 322 q 226 322 248 348 q 271 373 271 412 l 271 412 q 271 451 249 477 q 227 502 188 502 l 188 502 q 151 502 122 477 q 92 451 82 406 z m 688 406 l 688 406 q 678 451 648 477 q 619 502 582 502 l 582 502 q 543 502 521 477 q 500 451 500 412 l 500 412 q 500 373 522 348 q 544 322 580 322 l 580 322 q 650 322 688 406 z m 614 6 l 614 6 q 614 56 561 87 q 508 119 387 119 l 387 119 q 267 119 214 87 q 161 56 161 6 l 161 6 q 161 -42 214 -73 q 267 -103 387 -103 l 387 -103 q 508 -103 561 -73 q 614 -42 614 6 z m 546 2 l 546 2 q 546 -25 529 -43 q 512 -61 486 -61 l 486 -61 q 471 -61 464 -53 l 464 -53 q 487 -32 487 -4 l 487 -4 q 487 15 477 27 q 467 39 450 39 l 450 39 q 430 39 419 25 q 409 10 409 -10 l 409 -10 l 409 -53 l 366 -53 l 366 -10 q 366 10 355 25 q 345 39 324 39 l 324 39 q 307 39 297 27 q 287 15 287 -4 l 287 -4 q 287 -32 311 -53 l 311 -53 q 304 -61 289 -61 l 289 -61 q 263 -61 246 -43 q 229 -25 229 2 l 229 2 q 229 36 253 59 q 277 82 313 82 l 313 82 q 338 82 359 69 q 380 57 387 37 l 387 37 q 395 57 415 69 q 436 82 461 82 l 461 82 q 498 82 522 59 q 546 36 546 2 z"},"ഌ":{"ha":1186,"x_min":42,"x_max":1144,"o":"m 1144 251 l 1144 251 q 1144 186 1119 127 q 1094 68 1043 31 q 993 -6 920 -6 l 920 -6 q 849 -6 800 42 q 752 89 752 159 l 752 159 q 752 227 796 272 q 840 317 908 317 l 908 317 q 951 317 989 294 q 1026 271 1049 235 l 1049 235 l 1050 260 q 1050 368 993 434 q 935 500 840 500 l 840 500 q 750 500 695 441 q 641 381 636 276 l 636 276 l 636 0 l 541 0 l 541 259 q 541 367 483 433 q 425 500 333 500 l 333 500 q 260 500 207 468 q 153 435 125 378 q 97 321 97 250 l 97 250 l 99 226 q 125 269 166 295 q 207 322 259 322 l 259 322 q 331 322 377 276 q 424 229 424 159 l 424 159 q 424 85 377 40 q 329 -6 252 -6 l 252 -6 q 185 -6 137 31 q 89 68 65 127 q 42 186 42 251 l 42 251 q 42 341 79 411 q 117 481 186 520 q 255 560 347 560 l 347 560 q 433 560 502 518 q 571 477 606 403 l 606 403 q 638 477 703 518 q 769 560 860 560 l 860 560 q 945 560 1009 520 q 1074 479 1109 409 q 1144 339 1144 251 z m 108 166 l 108 166 q 127 113 160 83 q 192 52 234 52 l 234 52 q 280 52 305 81 q 331 110 331 157 l 331 157 q 331 203 304 231 q 277 259 235 259 l 235 259 q 196 259 162 232 q 129 205 108 166 z m 1039 166 l 1039 166 q 1019 205 985 232 q 952 259 912 259 l 912 259 q 865 259 836 231 q 807 203 807 157 l 807 157 q 807 110 835 81 q 863 52 914 52 l 914 52 q 956 52 990 83 q 1025 113 1039 166 z"},"ൡ":{"ha":1377,"x_min":42,"x_max":1338,"o":"m 1338 135 l 1338 135 q 1338 44 1294 -25 q 1250 -95 1172 -133 q 1095 -170 999 -170 l 999 -170 q 959 -170 914 -163 q 868 -155 836 -139 q 804 -123 804 -99 l 804 -99 q 804 -93 807 -86 l 807 -86 q 877 -107 947 -107 l 947 -107 q 1031 -107 1098 -76 q 1166 -45 1205 15 q 1244 76 1244 160 l 1244 160 q 1244 261 1203 322 q 1162 383 1096 403 l 1096 403 q 1131 332 1131 247 l 1131 247 q 1131 167 1103 110 q 1074 53 1027 23 q 980 -6 926 -6 l 926 -6 q 845 -6 799 46 q 752 98 752 190 l 752 190 q 752 285 807 357 q 861 429 954 454 l 954 454 q 902 500 831 500 l 831 500 q 746 500 693 440 q 641 381 636 276 l 636 276 l 636 0 l 541 0 l 541 259 q 541 367 483 433 q 425 500 333 500 l 333 500 q 260 500 207 468 q 153 435 125 378 q 97 321 97 250 l 97 250 l 99 226 q 125 269 166 295 q 207 322 259 322 l 259 322 q 331 322 377 276 q 424 229 424 159 l 424 159 q 424 85 377 40 q 329 -6 252 -6 l 252 -6 q 185 -6 137 31 q 89 68 65 127 q 42 186 42 251 l 42 251 q 42 341 79 411 q 117 481 186 520 q 255 560 347 560 l 347 560 q 433 560 502 518 q 571 477 606 404 l 606 404 q 637 477 700 518 q 763 560 848 560 l 848 560 q 910 560 964 534 q 1017 509 1056 463 l 1056 463 q 1129 458 1194 420 q 1259 381 1299 308 q 1338 236 1338 135 z m 1038 248 l 1038 248 q 1038 340 993 410 l 993 410 q 947 400 906 372 q 865 343 839 297 q 813 250 813 192 l 813 192 q 813 129 838 91 q 864 54 918 54 l 918 54 q 950 54 977 75 q 1004 96 1021 139 q 1038 183 1038 248 z m 108 166 l 108 166 q 127 113 160 83 q 192 52 234 52 l 234 52 q 280 52 305 81 q 331 110 331 157 l 331 157 q 331 203 304 231 q 277 259 235 259 l 235 259 q 196 259 162 232 q 129 205 108 166 z"},"എ":{"ha":1310,"x_min":34,"x_max":1266,"o":"m 1266 132 l 1266 132 q 1266 47 1240 -37 q 1213 -122 1166 -176 q 1118 -230 1057 -230 l 1057 -230 q 1036 -230 1020 -225 l 1020 -225 q 1089 -170 1130 -73 q 1170 24 1170 137 l 1170 137 q 1170 231 1138 313 q 1106 394 1042 444 q 977 494 884 494 l 884 494 q 812 494 747 451 q 683 408 643 323 q 603 238 603 119 l 603 119 q 603 85 607 54 l 607 54 l 835 54 l 835 418 l 930 418 l 930 -88 q 930 -152 893 -190 q 856 -228 794 -228 l 794 -228 q 707 -228 643 -168 q 578 -108 552 0 l 552 0 l 265 0 l 255 17 q 274 36 290 54 q 306 73 320 105 q 333 137 333 177 l 333 177 q 333 230 300 265 q 267 299 216 299 l 216 299 q 162 299 128 262 q 93 225 93 167 l 93 167 q 93 115 118 76 q 143 38 180 14 l 180 14 q 174 3 167 -1 q 160 -6 148 -6 l 148 -6 q 122 -6 95 17 q 69 39 52 79 q 34 119 34 167 l 34 167 q 34 253 88 306 q 143 360 228 360 l 228 360 q 281 360 326 338 q 371 316 398 276 q 424 235 424 182 l 424 182 q 424 147 410 113 q 396 79 367 54 l 367 54 l 542 54 q 537 87 537 122 l 537 122 q 537 261 588 360 q 639 459 722 509 q 805 560 898 560 l 898 560 q 1023 560 1106 498 q 1188 437 1227 340 q 1266 242 1266 132 z m 835 0 l 618 0 q 637 -70 676 -113 q 715 -156 769 -156 l 769 -156 q 802 -156 819 -138 q 835 -120 835 -88 l 835 -88 l 835 0 z"},"ഏ":{"ha":1299,"x_min":34,"x_max":1270,"o":"m 1270 -44 l 1270 -44 q 1270 -106 1244 -147 q 1218 -188 1178 -208 q 1139 -228 1098 -228 l 1098 -228 q 1051 -228 1023 -213 q 996 -198 996 -172 l 996 -172 l 996 -166 q 1013 -169 1031 -169 l 1031 -169 q 1094 -169 1134 -128 q 1173 -86 1173 -21 l 1173 -21 q 1173 45 1131 88 q 1089 130 1020 130 l 1020 130 l 1020 177 q 1071 177 1107 218 q 1142 259 1142 315 l 1142 315 q 1142 396 1082 445 q 1022 494 924 494 l 924 494 q 844 494 771 455 q 697 416 650 334 q 603 252 603 130 l 603 130 q 603 91 609 54 l 609 54 l 835 54 l 835 418 l 930 418 l 930 -92 q 930 -154 893 -191 q 855 -228 794 -228 l 794 -228 q 710 -228 646 -167 q 582 -106 554 0 l 554 0 l 265 0 l 255 17 q 274 36 290 54 q 306 73 320 105 q 333 137 333 177 l 333 177 q 333 230 300 265 q 267 299 216 299 l 216 299 q 162 299 128 262 q 93 225 93 167 l 93 167 q 93 115 118 76 q 143 38 180 14 l 180 14 q 174 3 167 -1 q 160 -6 148 -6 l 148 -6 q 122 -6 95 17 q 69 39 52 79 q 34 119 34 167 l 34 167 q 34 253 88 306 q 143 360 228 360 l 228 360 q 281 360 326 338 q 371 316 398 276 q 424 235 424 182 l 424 182 q 424 147 410 113 q 396 79 367 54 l 367 54 l 543 54 q 537 93 537 133 l 537 133 q 537 272 595 368 q 652 465 743 512 q 834 560 934 560 l 934 560 q 1017 560 1086 533 q 1155 506 1196 454 q 1238 402 1238 329 l 1238 329 q 1238 269 1206 220 q 1175 172 1125 157 l 1125 157 l 1125 152 q 1191 137 1230 83 q 1270 30 1270 -44 z m 835 0 l 621 0 q 641 -70 679 -113 q 718 -155 769 -155 l 769 -155 q 802 -155 819 -138 q 835 -121 835 -92 l 835 -92 l 835 0 z"},"ഐ":{"ha":2021,"x_min":42,"x_max":1977,"o":"m 454 0 l 454 0 q 507 38 539 107 q 571 176 571 254 l 571 254 q 571 333 538 389 q 506 445 453 472 q 400 500 340 500 l 340 500 q 277 500 222 471 q 166 443 132 386 q 97 330 97 250 l 97 250 l 99 226 q 125 269 166 295 q 207 322 259 322 l 259 322 q 331 322 377 276 q 424 229 424 159 l 424 159 q 424 85 377 40 q 329 -6 252 -6 l 252 -6 q 185 -6 137 31 q 89 67 65 126 q 42 185 42 251 l 42 251 q 42 350 86 419 q 131 489 204 524 q 277 560 359 560 l 359 560 q 442 560 513 525 q 583 490 626 421 q 669 352 669 255 l 669 255 q 669 175 642 115 q 615 55 574 24 q 533 -8 494 -8 l 494 -8 q 470 -8 454 0 z m 331 157 l 331 157 q 331 203 304 231 q 277 259 235 259 l 235 259 q 196 259 162 232 q 129 205 108 166 l 108 166 q 127 113 160 83 q 192 52 234 52 l 234 52 q 280 52 305 81 q 331 110 331 157 z m 1977 132 l 1977 132 q 1977 47 1950 -37 q 1924 -122 1877 -176 q 1829 -230 1768 -230 l 1768 -230 q 1747 -230 1731 -225 l 1731 -225 q 1800 -170 1841 -73 q 1881 24 1881 137 l 1881 137 q 1881 231 1849 313 q 1817 394 1752 444 q 1688 494 1595 494 l 1595 494 q 1522 494 1458 451 q 1394 408 1354 323 q 1314 238 1314 119 l 1314 119 q 1314 85 1318 54 l 1318 54 l 1546 54 l 1546 418 l 1641 418 l 1641 -88 q 1641 -152 1604 -190 q 1567 -228 1505 -228 l 1505 -228 q 1418 -228 1354 -168 q 1289 -108 1263 0 l 1263 0 l 976 0 l 966 17 q 985 36 1001 54 q 1017 73 1031 105 q 1044 137 1044 177 l 1044 177 q 1044 230 1011 265 q 978 299 927 299 l 927 299 q 873 299 839 262 q 804 225 804 167 l 804 167 q 804 115 829 76 q 854 38 891 14 l 891 14 q 885 3 878 -1 q 871 -6 859 -6 l 859 -6 q 833 -6 806 17 q 780 39 762 79 q 745 119 745 167 l 745 167 q 745 253 799 306 q 854 360 939 360 l 939 360 q 992 360 1037 338 q 1082 316 1109 276 q 1135 235 1135 182 l 1135 182 q 1135 147 1121 113 q 1106 79 1078 54 l 1078 54 l 1252 54 q 1248 87 1248 122 l 1248 122 q 1248 261 1299 360 q 1350 459 1433 509 q 1516 560 1609 560 l 1609 560 q 1734 560 1817 498 q 1899 437 1938 340 q 1977 242 1977 132 z m 1546 0 l 1329 0 q 1348 -70 1387 -113 q 1426 -156 1479 -156 l 1479 -156 q 1513 -156 1530 -138 q 1546 -120 1546 -88 l 1546 -88 l 1546 0 z"},"ഒ":{"ha":729,"x_min":42,"x_max":694,"o":"m 694 120 l 694 120 q 694 65 658 30 q 621 -6 563 -6 l 563 -6 q 520 -6 493 9 q 467 23 467 45 l 467 45 q 467 52 470 59 l 470 59 q 492 50 514 50 l 514 50 q 552 50 576 74 q 600 98 600 135 l 600 135 q 600 182 569 205 q 538 229 491 229 l 491 229 l 491 276 q 538 276 565 301 q 592 325 592 370 l 592 370 q 592 427 534 464 q 476 500 384 500 l 384 500 q 313 500 247 471 q 181 442 138 381 q 95 320 95 228 l 95 228 q 122 270 164 296 q 205 322 257 322 l 257 322 q 329 322 375 276 q 422 229 422 159 l 422 159 q 422 85 375 40 q 327 -6 250 -6 l 250 -6 q 188 -6 141 28 q 93 61 67 115 q 42 170 42 231 l 42 231 q 42 342 92 416 q 143 490 224 525 q 305 560 396 560 l 396 560 q 472 560 538 537 q 604 514 644 471 q 684 428 684 373 l 684 373 q 684 326 659 296 q 633 266 596 256 l 596 256 l 596 251 q 638 244 666 207 q 694 170 694 120 z m 106 161 l 106 161 q 125 110 157 81 q 190 52 231 52 l 231 52 q 278 52 303 81 q 328 110 328 157 l 328 157 q 328 203 302 231 q 275 259 233 259 l 233 259 q 193 259 160 231 q 126 202 106 161 z"},"ഓ":{"ha":1256,"x_min":42,"x_max":1237,"o":"m 694 120 l 694 120 q 694 65 658 30 q 621 -6 563 -6 l 563 -6 q 520 -6 493 9 q 467 23 467 45 l 467 45 q 467 52 470 59 l 470 59 q 492 50 514 50 l 514 50 q 552 50 576 74 q 600 98 600 135 l 600 135 q 600 182 569 205 q 538 229 491 229 l 491 229 l 491 276 q 538 276 565 301 q 592 325 592 370 l 592 370 q 592 427 534 464 q 476 500 384 500 l 384 500 q 313 500 247 471 q 181 442 138 381 q 95 320 95 228 l 95 228 q 122 270 164 296 q 205 322 257 322 l 257 322 q 329 322 375 276 q 422 229 422 159 l 422 159 q 422 85 375 40 q 327 -6 250 -6 l 250 -6 q 188 -6 141 28 q 93 61 67 115 q 42 170 42 231 l 42 231 q 42 342 92 416 q 143 490 224 525 q 305 560 396 560 l 396 560 q 472 560 538 537 q 604 514 644 471 q 684 428 684 373 l 684 373 q 684 326 659 296 q 633 266 596 256 l 596 256 l 596 251 q 638 244 666 207 q 694 170 694 120 z m 106 161 l 106 161 q 125 110 157 81 q 190 52 231 52 l 231 52 q 278 52 303 81 q 328 110 328 157 l 328 157 q 328 203 302 231 q 275 259 233 259 l 233 259 q 193 259 160 231 q 126 202 106 161 z m 801 156 l 801 156 q 801 176 809 188 q 818 200 833 200 l 833 200 q 847 137 887 95 q 927 54 992 54 l 992 54 q 1062 54 1102 113 q 1142 172 1142 277 l 1142 277 q 1142 381 1102 440 q 1062 500 992 500 l 992 500 q 927 500 887 458 q 847 417 833 354 l 833 354 q 818 354 809 366 q 801 378 801 398 l 801 398 q 801 432 823 469 q 846 507 892 533 q 938 560 1005 560 l 1005 560 q 1084 560 1136 519 q 1188 479 1212 415 q 1237 350 1237 277 l 1237 277 q 1237 204 1212 139 q 1188 75 1136 34 q 1084 -6 1005 -6 l 1005 -6 q 938 -6 892 20 q 846 46 823 84 q 801 122 801 156 z"},"ഔ":{"ha":1512,"x_min":42,"x_max":1463,"o":"m 694 120 l 694 120 q 694 65 658 30 q 621 -6 563 -6 l 563 -6 q 520 -6 493 9 q 467 23 467 45 l 467 45 q 467 52 470 59 l 470 59 q 492 50 514 50 l 514 50 q 552 50 576 74 q 600 98 600 135 l 600 135 q 600 182 569 205 q 538 229 491 229 l 491 229 l 491 276 q 538 276 565 301 q 592 325 592 370 l 592 370 q 592 427 534 464 q 476 500 384 500 l 384 500 q 313 500 247 471 q 181 442 138 381 q 95 320 95 228 l 95 228 q 122 270 164 296 q 205 322 257 322 l 257 322 q 329 322 375 276 q 422 229 422 159 l 422 159 q 422 85 375 40 q 327 -6 250 -6 l 250 -6 q 188 -6 141 28 q 93 61 67 115 q 42 170 42 231 l 42 231 q 42 342 92 416 q 143 490 224 525 q 305 560 396 560 l 396 560 q 472 560 538 537 q 604 514 644 471 q 684 428 684 373 l 684 373 q 684 326 659 296 q 633 266 596 256 l 596 256 l 596 251 q 638 244 666 207 q 694 170 694 120 z m 106 161 l 106 161 q 125 110 157 81 q 190 52 231 52 l 231 52 q 278 52 303 81 q 328 110 328 157 l 328 157 q 328 203 302 231 q 275 259 233 259 l 233 259 q 193 259 160 231 q 126 202 106 161 z m 1463 322 l 1463 322 q 1463 227 1422 152 q 1381 78 1306 36 q 1231 -6 1133 -6 l 1133 -6 q 1070 -6 1032 5 q 994 17 978 33 q 961 50 961 67 l 961 67 q 961 78 968 86 l 968 86 q 1007 69 1039 61 q 1070 53 1113 53 l 1113 53 q 1190 53 1249 90 q 1307 128 1338 190 q 1370 253 1370 326 l 1370 326 q 1370 400 1336 450 q 1302 500 1250 500 l 1250 500 q 1202 500 1170 463 q 1139 427 1139 370 l 1139 370 l 1139 233 l 1044 233 l 1044 371 q 1044 429 1017 465 q 989 500 943 500 l 943 500 q 899 500 871 467 q 843 434 843 385 l 843 385 q 843 340 857 306 q 872 272 904 237 l 904 237 q 892 228 876 228 l 876 228 q 854 228 832 247 q 811 267 797 304 q 783 340 783 388 l 783 388 q 783 464 830 512 q 877 560 955 560 l 955 560 q 1005 560 1046 535 q 1087 511 1109 469 l 1109 469 q 1131 514 1171 537 q 1211 560 1261 560 l 1261 560 q 1325 560 1370 527 q 1416 494 1439 439 q 1463 385 1463 322 z"},"ാ":{"ha":517,"x_min":39,"x_max":475,"o":"m 39 156 l 39 156 q 39 176 48 188 q 56 200 72 200 l 72 200 q 85 137 125 95 q 166 54 230 54 l 230 54 q 300 54 340 113 q 380 172 380 277 l 380 277 q 380 381 340 440 q 300 500 230 500 l 230 500 q 166 500 125 458 q 85 417 72 354 l 72 354 q 56 354 48 366 q 39 378 39 398 l 39 398 q 39 432 62 469 q 84 507 131 533 q 177 560 243 560 l 243 560 q 322 560 374 519 q 426 479 451 415 q 475 350 475 277 l 475 277 q 475 204 451 139 q 426 75 374 34 q 322 -6 243 -6 l 243 -6 q 177 -6 131 20 q 84 46 62 84 q 39 122 39 156 z"},"ി":{"ha":242,"x_min":-177,"x_max":173,"o":"m 78 0 l 78 645 q 78 712 51 750 q 23 788 -34 788 l -34 788 q -75 788 -101 761 q -127 734 -127 693 l -127 693 l -127 627 l -177 626 l -177 695 q -177 761 -131 802 q -85 843 -10 843 l -10 843 q 83 843 128 788 q 173 732 173 637 l 173 637 l 173 0 l 78 0 z"},"ീ":{"ha":242,"x_min":-230,"x_max":173,"o":"m 173 625 l 173 625 l 173 0 l 78 0 l 78 635 q 78 689 58 725 q 38 760 7 777 q -25 793 -61 793 l -61 793 l -71 793 q -36 777 -14 748 q 7 719 7 685 l 7 685 q 7 638 -25 609 q -58 579 -109 579 l -109 579 q -163 579 -197 612 q -230 644 -230 694 l -230 694 q -230 731 -210 764 q -190 798 -149 820 q -108 841 -48 843 l -48 843 q 62 843 117 787 q 173 731 173 625 z m -52 696 l -52 696 q -52 719 -66 742 q -81 764 -110 779 l -110 779 q -141 766 -156 744 q -171 721 -171 696 l -171 696 q -171 671 -155 653 q -139 634 -112 634 l -112 634 q -85 634 -68 652 q -52 670 -52 696 z"},"ു":{"ha":312,"x_min":-10,"x_max":304,"o":"m 304 -80 l 304 -80 q 304 -118 286 -152 q 267 -186 231 -207 q 195 -228 146 -228 l 146 -228 q 97 -228 61 -205 q 26 -182 8 -147 q -10 -113 -10 -77 l -10 -77 q -10 -17 23 28 q 57 74 123 114 l 123 114 q 156 238 156 348 l 156 348 q 156 431 139 469 q 121 507 85 507 l 85 507 q 71 507 58 500 l 58 500 l 57 510 q 57 531 75 545 q 94 560 124 560 l 124 560 q 176 560 206 518 q 237 475 237 406 l 237 406 q 237 346 217 267 q 196 188 165 112 l 165 112 q 233 72 269 26 q 304 -20 304 -80 z m 232 -66 l 232 -66 q 232 -34 220 -10 q 208 15 187 33 q 167 51 134 73 l 134 73 q 87 42 63 10 q 38 -21 38 -65 l 38 -65 q 38 -107 65 -135 q 93 -163 136 -163 l 136 -163 q 178 -163 205 -135 q 232 -107 232 -66 z"},"ൂ":{"ha":312,"x_min":-10,"x_max":304,"o":"m 304 -80 l 304 -80 q 304 -118 286 -152 q 267 -186 231 -207 q 195 -228 146 -228 l 146 -228 q 97 -228 61 -205 q 26 -182 8 -147 q -10 -113 -10 -77 l -10 -77 q -10 -17 23 28 q 57 74 123 114 l 123 114 q 156 238 156 348 l 156 348 q 156 431 139 469 q 121 507 85 507 l 85 507 q 71 507 58 500 l 58 500 l 57 510 q 57 531 75 545 q 94 560 124 560 l 124 560 q 176 560 206 518 q 237 475 237 406 l 237 406 q 237 346 217 267 q 196 188 165 112 l 165 112 q 233 72 269 26 q 304 -20 304 -80 z m 134 78 l 134 78 q 89 42 89 0 l 89 0 q 89 -21 101 -34 q 114 -47 134 -47 l 134 -47 q 155 -47 167 -34 q 180 -21 180 0 l 180 0 q 180 19 168 40 q 157 60 134 78 z m 233 -66 l 233 -66 q 233 -13 198 26 l 198 26 q 210 0 210 -27 l 210 -27 q 210 -61 190 -82 q 169 -103 136 -103 l 136 -103 q 103 -103 81 -82 q 59 -61 59 -23 l 59 -23 q 59 -2 66 18 l 66 18 q 38 -19 38 -65 l 38 -65 q 38 -107 65 -135 q 93 -163 136 -163 l 136 -163 q 179 -163 206 -135 q 233 -107 233 -66 z"},"ൃ":{"ha":295,"x_min":-34,"x_max":280,"o":"m 280 -98 l 280 -98 q 280 -177 233 -227 q 185 -277 110 -277 l 110 -277 q 66 -277 33 -258 q 0 -239 -17 -209 q -34 -180 -34 -149 l -34 -149 q -34 -98 -1 -66 q 33 -35 87 -35 l 87 -35 q 138 -35 170 -65 q 203 -95 203 -140 l 203 -140 q 203 -196 156 -224 l 156 -224 q 192 -210 213 -177 q 234 -143 234 -99 l 234 -99 q 234 -62 223 -22 q 211 17 195 52 q 178 88 148 144 l 148 144 q 117 204 98 244 q 80 284 67 330 q 54 375 54 420 l 54 420 q 54 484 84 520 q 114 556 168 556 l 168 556 q 183 556 193 554 l 193 554 q 154 491 154 391 l 154 391 q 154 343 167 288 q 179 233 221 126 l 221 126 q 259 28 270 -17 q 280 -61 280 -98 z m 153 -146 l 153 -146 q 153 -120 136 -101 q 119 -83 87 -83 l 87 -83 q 56 -83 39 -101 q 22 -120 22 -146 l 22 -146 q 22 -172 40 -196 q 57 -220 88 -232 l 88 -232 q 119 -220 136 -196 q 153 -172 153 -146 z"},"ൄ":{"ha":295,"x_min":-162,"x_max":275,"o":"m 275 -102 l 275 -102 q 275 -185 210 -241 q 145 -297 46 -297 l 46 -297 q -8 -297 -55 -279 q -103 -260 -133 -224 q -162 -188 -162 -137 l -162 -137 q -162 -94 -135 -66 q -108 -39 -69 -39 l -69 -39 q -45 -39 -26 -49 q -6 -60 1 -81 l 1 -81 q 10 -62 32 -50 q 53 -39 79 -39 l 79 -39 q 117 -39 143 -61 q 168 -83 168 -118 l 168 -118 q 168 -147 151 -167 q 134 -186 108 -186 l 108 -186 q 93 -186 86 -178 l 86 -178 q 110 -158 110 -125 l 110 -125 q 110 -105 98 -93 q 87 -81 68 -81 l 68 -81 q 45 -81 33 -95 q 21 -110 21 -130 l 21 -130 l 21 -178 l -21 -178 l -21 -127 q -21 -109 -33 -95 q -44 -81 -65 -81 l -65 -81 q -84 -81 -97 -97 q -110 -114 -110 -140 l -110 -140 q -110 -191 -68 -222 q -25 -252 46 -252 l 46 -252 q 125 -252 177 -208 q 229 -165 229 -99 l 229 -99 q 229 -57 212 -6 q 195 45 143 144 l 143 144 q 112 204 93 244 q 75 284 62 330 q 49 375 49 420 l 49 420 q 49 484 79 520 q 109 556 164 556 l 164 556 q 178 556 188 554 l 188 554 q 149 491 149 391 l 149 391 q 149 347 158 303 q 167 259 181 220 q 194 182 216 125 l 216 125 q 253 27 264 -18 q 275 -63 275 -102 z"},"ൢ":{"ha":0,"x_min":-754,"x_max":-65,"o":"m -65 -215 l -65 -215 q -65 -255 -81 -291 q -97 -327 -129 -349 q -161 -372 -207 -372 l -207 -372 q -250 -372 -280 -343 q -311 -315 -311 -273 l -311 -273 q -311 -232 -283 -205 q -256 -178 -213 -178 l -213 -178 q -188 -178 -165 -192 q -143 -206 -129 -227 l -129 -227 l -128 -212 q -128 -152 -162 -117 q -196 -82 -254 -82 l -254 -82 q -310 -82 -342 -117 q -374 -152 -375 -212 l -375 -212 l -375 -368 l -447 -368 l -447 -212 q -447 -152 -479 -117 q -512 -82 -569 -82 l -569 -82 q -635 -82 -673 -119 q -711 -156 -711 -218 l -711 -218 l -710 -233 q -694 -207 -669 -191 q -645 -175 -614 -175 l -614 -175 q -570 -175 -542 -202 q -514 -230 -514 -273 l -514 -273 q -514 -317 -543 -344 q -571 -372 -618 -372 l -618 -372 q -661 -372 -692 -350 q -723 -328 -738 -292 q -754 -257 -754 -217 l -754 -217 q -754 -136 -701 -86 q -649 -37 -561 -37 l -561 -37 q -506 -37 -463 -60 q -419 -82 -397 -122 l -397 -122 q -377 -82 -337 -59 q -298 -37 -243 -37 l -243 -37 q -163 -37 -114 -86 q -65 -136 -65 -215 z m -704 -269 l -704 -269 q -693 -298 -673 -315 q -654 -332 -629 -332 l -629 -332 q -601 -332 -586 -316 q -571 -300 -571 -274 l -571 -274 q -571 -245 -587 -229 q -604 -212 -628 -212 l -628 -212 q -652 -212 -672 -229 q -692 -245 -704 -269 z m -135 -269 l -135 -269 q -147 -247 -167 -232 q -187 -218 -211 -218 l -211 -218 q -237 -218 -254 -233 q -271 -248 -271 -274 l -271 -274 q -271 -299 -256 -315 q -240 -332 -210 -332 l -210 -332 q -185 -332 -164 -315 q -144 -298 -135 -269 z"},"ൣ":{"ha":0,"x_min":-754,"x_max":49,"o":"m 49 -295 l 49 -295 q 49 -350 19 -391 q -10 -431 -55 -452 q -100 -473 -145 -473 l -145 -473 q -189 -473 -221 -463 q -253 -454 -253 -432 l -253 -432 l -252 -424 q -214 -435 -178 -435 l -178 -435 q -104 -435 -58 -394 q -13 -353 -13 -285 l -13 -285 q -13 -240 -29 -208 q -45 -177 -73 -160 l -73 -160 q -65 -187 -65 -215 l -65 -215 q -65 -255 -81 -291 q -97 -327 -129 -349 q -161 -372 -207 -372 l -207 -372 q -252 -372 -281 -338 q -310 -305 -310 -255 l -310 -255 q -310 -204 -271 -162 q -233 -121 -174 -107 l -174 -107 q -207 -82 -254 -82 l -254 -82 q -310 -82 -342 -117 q -374 -152 -375 -212 l -375 -212 l -375 -368 l -447 -368 l -447 -212 q -447 -152 -479 -117 q -512 -82 -569 -82 l -569 -82 q -635 -82 -673 -119 q -711 -156 -711 -218 l -711 -218 l -710 -233 q -694 -207 -669 -191 q -645 -175 -614 -175 l -614 -175 q -570 -175 -542 -202 q -514 -230 -514 -273 l -514 -273 q -514 -317 -543 -344 q -571 -372 -618 -372 l -618 -372 q -661 -372 -692 -350 q -723 -328 -738 -292 q -754 -257 -754 -217 l -754 -217 q -754 -136 -701 -86 q -649 -37 -561 -37 l -561 -37 q -506 -37 -463 -60 q -419 -82 -397 -122 l -397 -122 q -377 -82 -337 -59 q -298 -37 -243 -37 l -243 -37 q -197 -37 -159 -56 q -121 -75 -97 -109 l -97 -109 q -30 -122 10 -172 q 49 -222 49 -295 z m -128 -212 l -128 -212 q -128 -171 -146 -141 l -146 -141 q -200 -152 -232 -184 q -264 -216 -264 -259 l -264 -259 q -264 -293 -248 -312 q -231 -332 -205 -332 l -205 -332 q -166 -332 -147 -299 q -128 -267 -128 -212 z m -704 -269 l -704 -269 q -693 -298 -673 -315 q -654 -332 -629 -332 l -629 -332 q -601 -332 -586 -316 q -571 -300 -571 -274 l -571 -274 q -571 -245 -587 -229 q -604 -212 -628 -212 l -628 -212 q -652 -212 -672 -229 q -692 -245 -704 -269 z"},"െ":{"ha":711,"x_min":42,"x_max":669,"o":"m 454 0 l 454 0 q 507 38 539 107 q 571 176 571 254 l 571 254 q 571 333 538 389 q 506 445 453 472 q 400 500 340 500 l 340 500 q 277 500 222 471 q 166 443 132 386 q 97 330 97 250 l 97 250 l 99 226 q 125 269 166 295 q 207 322 259 322 l 259 322 q 331 322 377 276 q 424 229 424 159 l 424 159 q 424 85 377 40 q 329 -6 252 -6 l 252 -6 q 185 -6 137 31 q 89 67 65 126 q 42 185 42 251 l 42 251 q 42 350 86 419 q 131 489 204 524 q 277 560 359 560 l 359 560 q 442 560 513 525 q 583 490 626 421 q 669 352 669 255 l 669 255 q 669 175 642 115 q 615 55 574 24 q 533 -8 494 -8 l 494 -8 q 470 -8 454 0 z m 331 157 l 331 157 q 331 203 304 231 q 277 259 235 259 l 235 259 q 196 259 162 232 q 129 205 108 166 l 108 166 q 127 113 160 83 q 192 52 234 52 l 234 52 q 280 52 305 81 q 331 110 331 157 z"},"േ":{"ha":555,"x_min":42,"x_max":521,"o":"m 42 276 l 42 276 q 42 350 74 415 q 107 479 172 520 q 237 560 329 560 l 329 560 q 392 560 435 538 q 479 517 500 482 q 521 448 521 411 l 521 411 q 521 361 487 328 q 454 295 400 295 l 400 295 q 348 295 316 325 q 283 354 283 401 l 283 401 q 283 429 301 458 q 318 486 350 502 l 350 502 l 344 502 q 279 502 232 470 q 186 438 162 387 q 138 335 138 276 l 138 276 q 138 218 162 166 q 186 115 233 83 q 281 51 348 51 l 348 51 q 317 68 300 96 q 283 124 283 152 l 283 152 q 283 198 316 228 q 348 257 400 257 l 400 257 q 453 257 487 225 q 521 192 521 143 l 521 143 q 521 105 500 71 q 479 37 435 16 q 392 -6 329 -6 l 329 -6 q 237 -6 172 34 q 107 74 74 138 q 42 203 42 276 z m 461 411 l 461 411 q 461 436 446 458 q 431 481 400 494 l 400 494 q 371 479 356 457 q 342 434 342 411 l 342 411 q 342 385 358 367 q 375 349 402 349 l 402 349 q 429 349 445 367 q 461 386 461 411 z m 461 142 l 461 142 q 461 167 445 185 q 429 204 402 204 l 402 204 q 375 204 358 186 q 342 168 342 142 l 342 142 q 342 119 356 96 q 371 74 400 59 l 400 59 q 431 72 446 94 q 461 117 461 142 z"},"ൈ":{"ha":1422,"x_min":42,"x_max":1380,"o":"m 454 0 l 454 0 q 507 38 539 107 q 571 176 571 254 l 571 254 q 571 333 538 389 q 506 445 453 472 q 400 500 340 500 l 340 500 q 277 500 222 471 q 166 443 132 386 q 97 330 97 250 l 97 250 l 99 226 q 125 269 166 295 q 207 322 259 322 l 259 322 q 331 322 377 276 q 424 229 424 159 l 424 159 q 424 85 377 40 q 329 -6 252 -6 l 252 -6 q 185 -6 137 31 q 89 67 65 126 q 42 185 42 251 l 42 251 q 42 350 86 419 q 131 489 204 524 q 277 560 359 560 l 359 560 q 442 560 513 525 q 583 490 626 421 q 669 352 669 255 l 669 255 q 669 175 642 115 q 615 55 574 24 q 533 -8 494 -8 l 494 -8 q 470 -8 454 0 z m 331 157 l 331 157 q 331 203 304 231 q 277 259 235 259 l 235 259 q 196 259 162 232 q 129 205 108 166 l 108 166 q 127 113 160 83 q 192 52 234 52 l 234 52 q 280 52 305 81 q 331 110 331 157 z m 1165 0 l 1165 0 q 1218 38 1250 107 q 1282 176 1282 254 l 1282 254 q 1282 333 1249 389 q 1217 445 1164 472 q 1111 500 1051 500 l 1051 500 q 988 500 933 471 q 877 443 843 386 q 808 330 808 250 l 808 250 l 810 226 q 836 269 877 295 q 917 322 970 322 l 970 322 q 1042 322 1088 276 q 1135 229 1135 159 l 1135 159 q 1135 85 1088 40 q 1040 -6 963 -6 l 963 -6 q 896 -6 848 31 q 800 67 776 126 q 752 185 752 251 l 752 251 q 752 350 797 419 q 842 489 915 524 q 988 560 1070 560 l 1070 560 q 1153 560 1224 525 q 1294 490 1337 421 q 1380 352 1380 255 l 1380 255 q 1380 175 1353 115 q 1326 55 1285 24 q 1244 -8 1205 -8 l 1205 -8 q 1181 -8 1165 0 z m 1042 157 l 1042 157 q 1042 203 1015 231 q 988 259 946 259 l 946 259 q 907 259 873 232 q 840 205 819 166 l 819 166 q 838 113 871 83 q 903 52 945 52 l 945 52 q 991 52 1016 81 q 1042 110 1042 157 z"},"ൊ":{"ha":1433,"x_min":42,"x_max":1414,"o":"m 454 0 l 454 0 q 507 38 539 107 q 571 176 571 254 l 571 254 q 571 333 538 389 q 506 445 453 472 q 400 500 340 500 l 340 500 q 277 500 222 471 q 166 443 132 386 q 97 330 97 250 l 97 250 l 99 226 q 125 269 166 295 q 207 322 259 322 l 259 322 q 331 322 377 276 q 424 229 424 159 l 424 159 q 424 85 377 40 q 329 -6 252 -6 l 252 -6 q 185 -6 137 31 q 89 67 65 126 q 42 185 42 251 l 42 251 q 42 350 86 419 q 131 489 204 524 q 277 560 359 560 l 359 560 q 442 560 513 525 q 583 490 626 421 q 669 352 669 255 l 669 255 q 669 175 642 115 q 615 55 574 24 q 533 -8 494 -8 l 494 -8 q 470 -8 454 0 z m 978 156 l 978 156 q 978 176 986 188 q 995 200 1010 200 l 1010 200 q 1023 137 1064 95 q 1104 54 1168 54 l 1168 54 q 1238 54 1279 113 q 1319 172 1319 277 l 1319 277 q 1319 381 1279 440 q 1238 500 1168 500 l 1168 500 q 1104 500 1064 458 q 1023 417 1010 354 l 1010 354 q 995 354 986 366 q 978 378 978 398 l 978 398 q 978 432 1000 469 q 1023 507 1069 533 q 1115 560 1182 560 l 1182 560 q 1261 560 1313 519 q 1365 479 1389 415 q 1414 350 1414 277 l 1414 277 q 1414 204 1389 139 q 1365 75 1313 34 q 1261 -6 1182 -6 l 1182 -6 q 1115 -6 1069 20 q 1023 46 1000 84 q 978 122 978 156 z m 760 298 l 760 298 q 760 324 777 337 q 794 351 822 351 l 822 351 q 851 351 868 337 q 885 324 885 298 l 885 298 q 885 273 868 260 q 850 246 822 246 l 822 246 q 794 246 777 259 q 760 272 760 298 z m 331 157 l 331 157 q 331 203 304 231 q 277 259 235 259 l 235 259 q 196 259 162 232 q 129 205 108 166 l 108 166 q 127 113 160 83 q 192 52 234 52 l 234 52 q 280 52 305 81 q 331 110 331 157 z"},"ോ":{"ha":1274,"x_min":42,"x_max":1210,"o":"m 42 276 l 42 276 q 42 350 74 415 q 107 479 172 520 q 237 560 329 560 l 329 560 q 392 560 435 538 q 479 517 500 482 q 521 448 521 411 l 521 411 q 521 361 487 328 q 454 295 400 295 l 400 295 q 348 295 316 325 q 283 354 283 401 l 283 401 q 283 429 301 458 q 318 486 350 502 l 350 502 l 344 502 q 279 502 232 470 q 186 438 162 387 q 138 335 138 276 l 138 276 q 138 218 162 166 q 186 115 233 83 q 281 51 348 51 l 348 51 q 317 68 300 96 q 283 124 283 152 l 283 152 q 283 198 316 228 q 348 257 400 257 l 400 257 q 453 257 487 225 q 521 192 521 143 l 521 143 q 521 105 500 71 q 479 37 435 16 q 392 -6 329 -6 l 329 -6 q 237 -6 172 34 q 107 74 74 138 q 42 203 42 276 z m 774 156 l 774 156 q 774 176 782 188 q 791 200 807 200 l 807 200 q 820 137 860 95 q 900 54 965 54 l 965 54 q 1035 54 1075 113 q 1115 172 1115 277 l 1115 277 q 1115 381 1075 440 q 1035 500 965 500 l 965 500 q 900 500 860 458 q 820 417 807 354 l 807 354 q 791 354 782 366 q 774 378 774 398 l 774 398 q 774 432 797 469 q 819 507 865 533 q 912 560 978 560 l 978 560 q 1057 560 1109 519 q 1161 479 1186 415 q 1210 350 1210 277 l 1210 277 q 1210 204 1186 139 q 1161 75 1109 34 q 1057 -6 978 -6 l 978 -6 q 912 -6 865 20 q 819 46 797 84 q 774 122 774 156 z m 461 411 l 461 411 q 461 436 446 458 q 431 481 400 494 l 400 494 q 371 479 356 457 q 342 434 342 411 l 342 411 q 342 385 358 367 q 375 349 402 349 l 402 349 q 429 349 445 367 q 461 386 461 411 z m 596 298 l 596 298 q 596 324 613 337 q 629 351 658 351 l 658 351 q 686 351 703 337 q 721 324 721 298 l 721 298 q 721 273 703 260 q 686 246 658 246 l 658 246 q 630 246 613 259 q 596 272 596 298 z m 461 142 l 461 142 q 461 167 445 185 q 429 204 402 204 l 402 204 q 375 204 358 186 q 342 168 342 142 l 342 142 q 342 119 356 96 q 371 74 400 59 l 400 59 q 431 72 446 94 q 461 117 461 142 z"},"ൌ":{"ha":1689,"x_min":42,"x_max":1640,"o":"m 669 255 l 669 255 q 669 175 642 115 q 615 55 574 24 q 533 -8 494 -8 l 494 -8 q 470 -8 454 0 l 454 0 q 507 38 539 107 q 571 176 571 254 l 571 254 q 571 333 538 389 q 506 445 453 472 q 400 500 340 500 l 340 500 q 277 500 222 471 q 166 443 132 386 q 97 330 97 250 l 97 250 l 99 226 q 125 269 166 295 q 207 322 259 322 l 259 322 q 331 322 377 276 q 424 229 424 159 l 424 159 q 424 85 377 40 q 329 -6 252 -6 l 252 -6 q 185 -6 137 31 q 89 67 65 126 q 42 185 42 251 l 42 251 q 42 350 86 419 q 131 489 204 524 q 277 560 359 560 l 359 560 q 442 560 513 525 q 583 490 626 421 q 669 352 669 255 z m 1640 322 l 1640 322 q 1640 227 1599 152 q 1558 78 1483 36 q 1408 -6 1310 -6 l 1310 -6 q 1247 -6 1209 5 q 1170 17 1154 33 q 1138 50 1138 67 l 1138 67 q 1138 78 1145 86 l 1145 86 q 1184 69 1215 61 q 1247 53 1290 53 l 1290 53 q 1367 53 1426 90 q 1484 128 1515 190 q 1546 253 1546 326 l 1546 326 q 1546 400 1513 450 q 1479 500 1427 500 l 1427 500 q 1378 500 1347 463 q 1316 427 1316 370 l 1316 370 l 1316 233 l 1221 233 l 1221 371 q 1221 429 1194 465 q 1166 500 1120 500 l 1120 500 q 1076 500 1048 467 q 1020 434 1020 385 l 1020 385 q 1020 340 1034 306 q 1049 272 1081 237 l 1081 237 q 1068 228 1053 228 l 1053 228 q 1030 228 1009 247 q 987 267 974 304 q 960 340 960 388 l 960 388 q 960 464 1007 512 q 1054 560 1132 560 l 1132 560 q 1182 560 1223 535 q 1264 511 1286 469 l 1286 469 q 1308 514 1348 537 q 1388 560 1438 560 l 1438 560 q 1501 560 1547 527 q 1593 494 1616 439 q 1640 385 1640 322 z m 885 298 l 885 298 q 885 273 868 260 q 850 246 822 246 l 822 246 q 794 246 777 259 q 760 272 760 298 l 760 298 q 760 324 777 337 q 794 351 822 351 l 822 351 q 851 351 868 337 q 885 324 885 298 z m 108 166 l 108 166 q 127 113 160 83 q 192 52 234 52 l 234 52 q 280 52 305 81 q 331 110 331 157 l 331 157 q 331 203 304 231 q 277 259 235 259 l 235 259 q 196 259 162 232 q 129 205 108 166 z"},"ൗ":{"ha":765,"x_min":44,"x_max":724,"o":"m 724 322 l 724 322 q 724 227 683 152 q 642 78 567 36 q 492 -6 394 -6 l 394 -6 q 331 -6 293 5 q 254 17 238 33 q 222 50 222 67 l 222 67 q 222 78 229 86 l 229 86 q 268 69 299 61 q 331 53 374 53 l 374 53 q 451 53 510 90 q 568 128 599 190 q 630 253 630 326 l 630 326 q 630 400 597 450 q 563 500 511 500 l 511 500 q 462 500 431 463 q 400 427 400 370 l 400 370 l 400 233 l 305 233 l 305 371 q 305 429 278 465 q 250 500 204 500 l 204 500 q 160 500 132 467 q 104 434 104 385 l 104 385 q 104 340 118 306 q 133 272 165 237 l 165 237 q 152 228 137 228 l 137 228 q 114 228 93 247 q 71 267 58 304 q 44 340 44 388 l 44 388 q 44 464 91 512 q 138 560 216 560 l 216 560 q 266 560 307 535 q 348 511 370 469 l 370 469 q 392 514 432 537 q 472 560 522 560 l 522 560 q 585 560 631 527 q 677 494 700 439 q 724 385 724 322 z"},"ക":{"ha":986,"x_min":39,"x_max":947,"o":"m 947 144 l 947 144 q 947 77 907 36 q 868 -5 806 -5 l 806 -5 q 774 -5 753 10 q 733 25 733 52 l 733 52 l 754 51 q 799 51 825 77 q 852 103 852 150 l 852 150 q 852 207 818 235 q 784 263 722 264 l 722 264 q 718 134 660 64 q 603 -6 500 -6 l 500 -6 q 397 -6 339 76 l 339 76 q 292 -5 200 -5 l 200 -5 q 127 -5 83 35 q 39 76 39 144 l 39 144 q 39 221 95 265 q 152 310 249 310 l 249 310 l 287 310 q 295 427 351 493 q 408 560 500 560 l 500 560 q 599 560 656 495 q 713 431 721 310 l 721 310 l 728 310 q 829 310 888 265 q 947 221 947 144 z m 345 310 l 345 310 l 625 310 q 622 397 593 449 q 564 500 493 500 l 493 500 q 431 500 391 449 q 352 398 345 310 z m 309 134 l 309 134 q 288 190 286 264 l 286 264 l 260 264 q 202 264 167 235 q 132 207 132 147 l 132 147 q 132 96 154 72 q 176 48 208 48 l 208 48 q 237 48 264 69 q 291 89 309 134 z m 626 264 l 626 264 l 343 264 q 347 165 387 109 q 427 54 493 54 l 493 54 q 568 54 596 111 q 625 167 626 264 z"},"ഖ":{"ha":1003,"x_min":42,"x_max":935,"o":"m 42 251 l 42 251 q 42 341 82 411 q 123 481 195 521 q 267 560 357 560 l 357 560 q 444 560 515 523 q 586 486 627 419 q 668 352 668 266 l 668 266 q 668 195 640 142 q 611 89 573 54 l 573 54 l 840 54 l 840 553 l 935 553 l 935 0 l 477 0 l 467 17 q 503 49 537 108 q 570 167 570 259 l 570 259 q 570 367 508 433 q 445 500 343 500 l 343 500 q 271 500 215 468 q 159 436 128 379 q 97 322 97 250 l 97 250 l 99 226 q 125 269 166 295 q 207 322 259 322 l 259 322 q 331 322 377 276 q 424 229 424 159 l 424 159 q 424 85 377 40 q 329 -6 252 -6 l 252 -6 q 185 -6 137 31 q 89 67 65 126 q 42 185 42 251 z m 331 157 l 331 157 q 331 203 304 231 q 277 259 235 259 l 235 259 q 196 259 162 232 q 129 205 108 166 l 108 166 q 127 113 160 83 q 192 52 234 52 l 234 52 q 280 52 305 81 q 331 110 331 157 z"},"ഗ":{"ha":903,"x_min":42,"x_max":861,"o":"m 642 5 l 642 5 q 728 71 765 142 q 802 213 802 298 l 802 298 q 802 361 779 407 q 755 453 719 477 q 682 500 641 500 l 641 500 q 577 500 538 451 q 499 403 499 325 l 499 325 l 499 226 q 499 119 439 55 q 378 -9 277 -9 l 277 -9 q 217 -9 163 21 q 109 51 75 110 q 42 170 42 254 l 42 254 q 42 333 73 404 q 104 475 149 519 q 194 562 230 562 l 230 562 q 251 562 261 545 l 261 545 q 175 479 138 408 q 101 337 101 252 l 101 252 q 101 189 124 143 q 147 97 184 74 q 221 50 262 50 l 262 50 q 326 50 365 99 q 404 147 404 225 l 404 225 l 404 324 q 404 431 464 495 q 524 560 625 560 l 625 560 q 686 560 740 530 q 794 500 828 440 q 861 380 861 296 l 861 296 q 861 217 830 146 q 798 75 753 32 q 708 -12 673 -12 l 673 -12 q 652 -12 642 5 z"},"ഘ":{"ha":1289,"x_min":34,"x_max":1221,"o":"m 1126 554 l 1221 554 l 1221 0 l 532 0 l 532 206 l 258 206 l 248 223 q 284 251 302 290 q 320 328 320 367 l 320 367 q 320 417 289 448 q 258 479 207 479 l 207 479 q 157 479 125 445 q 94 412 94 358 l 94 358 q 94 313 115 277 q 137 242 170 222 l 170 222 q 162 203 138 203 l 138 203 q 115 203 91 223 q 66 243 50 278 q 34 314 34 358 l 34 358 q 34 406 56 447 q 78 489 121 514 q 164 540 224 540 l 224 540 q 279 540 323 517 q 366 495 389 458 q 413 421 413 378 l 413 378 q 413 313 361 260 l 361 260 l 532 260 l 532 339 q 532 411 561 461 q 589 510 637 535 q 685 560 744 560 l 744 560 q 848 560 904 503 q 959 446 959 332 l 959 332 l 959 206 l 627 206 l 627 54 l 1126 54 l 1126 554 z m 627 340 l 627 340 l 627 260 l 900 260 l 900 338 q 900 500 767 500 l 767 500 q 702 500 665 462 q 627 423 627 340 z"},"ങ":{"ha":1094,"x_min":42,"x_max":1050,"o":"m 1050 130 l 1050 130 q 1050 71 1005 33 q 960 -6 891 -6 l 891 -6 q 837 -6 805 10 q 773 25 773 51 l 773 51 q 773 58 776 65 l 776 65 q 814 52 851 52 l 851 52 q 898 52 927 76 q 956 101 956 140 l 956 140 q 956 189 923 214 q 890 239 839 239 l 839 239 l 804 239 l 804 286 l 839 286 q 890 286 918 313 q 947 340 947 390 l 947 390 q 947 437 910 468 q 873 500 814 500 l 814 500 q 771 500 729 478 q 688 455 661 409 q 634 363 634 296 l 634 296 l 634 0 l 539 0 l 539 296 q 539 391 483 445 q 427 500 332 500 l 332 500 q 229 500 163 430 q 98 359 98 250 l 98 250 l 99 226 q 125 269 166 295 q 207 322 259 322 l 259 322 q 331 322 377 276 q 424 229 424 159 l 424 159 q 424 85 377 40 q 329 -6 252 -6 l 252 -6 q 185 -6 137 31 q 89 67 65 126 q 42 185 42 251 l 42 251 q 42 340 81 410 q 120 480 189 520 q 258 560 346 560 l 346 560 q 427 560 498 528 q 568 496 606 425 l 606 425 q 635 483 692 521 q 748 560 826 560 l 826 560 q 895 560 943 535 q 992 510 1016 472 q 1040 434 1040 392 l 1040 392 q 1040 342 1012 309 q 985 277 945 266 l 945 266 l 945 261 q 992 252 1021 216 q 1050 181 1050 130 z m 108 166 l 108 166 q 127 113 160 83 q 192 52 234 52 l 234 52 q 280 52 305 81 q 331 110 331 157 l 331 157 q 331 203 304 231 q 277 259 235 259 l 235 259 q 196 259 162 232 q 129 205 108 166 z"},"ച":{"ha":930,"x_min":20,"x_max":862,"o":"m 767 554 l 862 554 l 862 0 l 20 0 l 20 54 l 324 54 q 353 54 381 70 q 409 86 427 116 q 445 146 445 184 l 445 184 q 445 234 415 266 q 384 299 335 299 l 335 299 q 288 299 258 270 q 229 240 229 192 l 229 192 q 229 166 239 135 l 239 135 q 234 132 223 132 l 223 132 q 197 132 184 153 q 171 173 171 208 l 171 208 q 171 247 193 282 q 214 317 253 339 q 293 360 346 360 l 346 360 q 435 360 488 311 q 542 262 542 180 l 542 180 q 542 141 526 108 q 509 75 485 54 l 485 54 l 767 54 l 767 554 z"},"ഛ":{"ha":1323,"x_min":20,"x_max":1282,"o":"m 1282 240 l 1282 240 q 1282 172 1259 116 q 1235 61 1190 28 q 1145 -5 1083 -5 l 1083 -5 q 1000 -5 951 53 q 902 111 902 209 l 902 209 q 902 286 937 362 q 972 438 1028 493 l 1028 493 q 1005 500 980 501 l 980 501 q 873 501 806 432 q 739 364 739 254 l 739 254 q 739 123 839 38 l 839 38 l 815 0 l 20 0 l 20 54 l 324 54 q 353 54 381 70 q 409 86 427 116 q 445 146 445 184 l 445 184 q 445 234 415 266 q 384 299 335 299 l 335 299 q 288 299 258 270 q 229 240 229 192 l 229 192 q 229 166 239 135 l 239 135 q 234 132 223 132 l 223 132 q 197 132 184 153 q 171 173 171 208 l 171 208 q 171 247 193 282 q 214 317 253 339 q 293 360 346 360 l 346 360 q 435 360 488 311 q 542 262 542 180 l 542 180 q 542 141 526 108 q 509 75 485 54 l 485 54 l 747 54 q 717 91 699 144 q 681 196 681 256 l 681 256 q 681 349 722 418 q 764 486 834 523 q 904 560 987 560 l 987 560 q 1074 560 1141 519 q 1208 478 1245 405 q 1282 332 1282 240 z m 1081 467 l 1081 467 q 1024 414 993 344 q 962 274 962 199 l 962 199 q 962 132 992 92 q 1022 51 1073 51 l 1073 51 q 1125 51 1157 97 q 1189 142 1189 229 l 1189 229 q 1189 300 1161 365 q 1133 430 1081 467 z"},"ജ":{"ha":883,"x_min":46,"x_max":837,"o":"m 46 115 l 46 115 q 46 168 91 201 q 136 234 205 234 l 205 234 l 578 234 q 651 234 696 275 q 742 315 742 381 l 742 381 q 742 433 708 466 q 674 500 623 500 l 623 500 q 566 500 532 458 q 498 416 498 345 l 498 345 l 498 292 l 403 292 l 403 345 q 403 415 359 458 q 315 501 246 501 l 246 501 q 184 501 145 479 q 106 456 92 421 l 92 421 q 107 441 131 452 q 154 463 182 463 l 182 463 q 229 463 259 434 q 289 404 289 358 l 289 358 q 289 313 256 282 q 223 252 172 252 l 172 252 q 117 252 82 292 q 47 332 47 392 l 47 392 q 47 435 71 473 q 95 511 145 535 q 194 560 266 560 l 266 560 q 330 560 386 530 q 443 500 467 453 l 467 453 q 522 560 645 560 l 645 560 q 700 560 744 535 q 788 511 813 470 q 837 430 837 382 l 837 382 q 837 335 814 295 q 791 255 751 227 l 751 227 q 789 215 812 185 q 834 154 834 112 l 834 112 q 834 62 796 28 q 758 -6 699 -6 l 699 -6 q 639 -6 594 28 q 548 61 523 123 l 523 123 l 482 100 q 422 66 380 45 q 337 23 291 9 q 244 -6 201 -6 l 201 -6 q 129 -6 88 27 q 46 60 46 115 z m 217 358 l 217 358 q 217 385 202 403 q 187 421 162 421 l 162 421 q 114 421 88 363 l 88 363 q 95 333 115 315 q 135 297 161 297 l 161 297 q 187 297 202 315 q 217 332 217 358 z m 445 138 l 528 181 l 218 181 q 185 181 164 163 q 143 145 143 117 l 143 117 q 143 90 164 72 q 185 53 221 53 l 221 53 q 255 53 300 69 q 345 85 445 138 l 445 138 z m 739 115 l 739 115 q 739 142 723 161 q 707 180 676 180 l 676 180 q 637 180 566 146 l 566 146 q 603 54 669 54 l 669 54 q 700 54 719 71 q 739 89 739 115 z"},"ഝ":{"ha":1645,"x_min":42,"x_max":1604,"o":"m 1604 256 l 1604 256 q 1604 172 1570 113 q 1536 54 1482 24 q 1428 -6 1368 -6 l 1368 -6 q 1309 -6 1259 19 q 1208 44 1179 89 l 1179 89 q 1156 43 1111 19 q 1066 -6 1013 -6 l 1013 -6 q 930 -6 876 42 q 822 90 822 166 l 822 166 l 822 254 q 822 333 789 389 q 757 444 704 472 q 652 500 591 500 l 591 500 q 559 500 529 492 l 529 492 q 583 447 613 381 q 644 314 644 240 l 644 240 q 644 172 620 116 q 597 61 552 28 q 507 -5 445 -5 l 445 -5 q 361 -5 313 54 q 264 113 264 214 l 264 214 q 264 305 299 374 q 334 444 395 489 l 395 489 q 363 500 327 500 l 327 500 q 264 500 212 469 q 160 437 130 380 q 100 324 100 254 l 100 254 q 100 173 137 112 q 175 51 238 11 l 238 11 q 226 -6 201 -6 l 201 -6 q 168 -6 130 29 q 93 64 67 124 q 42 185 42 256 l 42 256 q 42 347 82 416 q 122 485 189 522 q 256 560 336 560 l 336 560 q 408 560 468 531 l 468 531 q 536 559 609 559 l 609 559 q 691 559 761 524 q 831 490 874 422 q 917 353 917 255 l 917 255 l 917 182 q 917 124 947 89 q 976 54 1036 54 l 1036 54 q 1083 54 1115 90 q 1146 125 1146 181 l 1146 181 l 1146 554 l 1241 554 l 1241 199 q 1241 131 1276 93 q 1311 54 1373 54 l 1373 54 q 1417 54 1456 76 q 1496 99 1520 144 q 1545 190 1545 256 l 1545 256 q 1545 353 1505 424 q 1464 495 1395 542 l 1395 542 q 1409 560 1432 560 l 1432 560 q 1467 560 1507 518 q 1548 476 1576 406 q 1604 336 1604 256 z m 449 458 l 449 458 q 392 421 358 358 q 324 294 324 208 l 324 208 q 324 138 354 94 q 384 51 435 51 l 435 51 q 487 51 519 97 q 551 142 551 229 l 551 229 q 551 294 525 356 q 499 419 449 458 z"},"ഞ":{"ha":1476,"x_min":42,"x_max":1435,"o":"m 1435 255 l 1435 255 q 1435 175 1407 115 q 1380 55 1339 24 q 1298 -8 1259 -8 l 1259 -8 q 1235 -8 1219 0 l 1219 0 q 1272 38 1304 107 q 1336 176 1336 254 l 1336 254 q 1336 333 1304 389 q 1273 444 1221 472 q 1169 500 1109 500 l 1109 500 q 1077 500 1043 492 l 1043 492 q 1099 447 1130 381 q 1161 314 1161 240 l 1161 240 q 1161 172 1138 116 q 1115 61 1070 28 q 1024 -5 962 -5 l 962 -5 q 879 -5 830 54 q 782 113 782 214 l 782 214 q 782 303 816 372 q 850 441 909 486 l 909 486 q 875 500 835 501 l 835 501 q 749 501 695 445 q 641 388 641 298 l 641 298 l 641 0 l 545 0 l 545 292 q 545 389 490 444 q 435 500 340 500 l 340 500 q 277 500 222 471 q 166 443 132 386 q 97 330 97 250 l 97 250 l 99 226 q 125 269 166 295 q 207 322 259 322 l 259 322 q 331 322 377 276 q 424 229 424 159 l 424 159 q 424 85 377 40 q 329 -6 252 -6 l 252 -6 q 185 -6 137 31 q 89 67 65 126 q 42 185 42 251 l 42 251 q 42 350 85 419 q 129 489 200 524 q 271 560 352 560 l 352 560 q 433 560 503 528 q 574 497 612 427 l 612 427 q 644 490 706 525 q 768 560 842 560 l 842 560 q 918 560 983 529 l 983 529 q 1051 559 1127 559 l 1127 559 q 1208 559 1278 524 q 1349 490 1392 421 q 1435 353 1435 255 z m 963 456 l 963 456 q 908 419 875 356 q 842 293 842 208 l 842 208 q 842 138 872 94 q 902 51 953 51 l 953 51 q 1005 51 1037 97 q 1069 142 1069 229 l 1069 229 q 1069 294 1042 356 q 1015 417 963 456 z m 108 166 l 108 166 q 127 113 160 83 q 192 52 234 52 l 234 52 q 280 52 305 81 q 331 110 331 157 l 331 157 q 331 203 304 231 q 277 259 235 259 l 235 259 q 196 259 162 232 q 129 205 108 166 z"},"ട":{"ha":578,"x_min":42,"x_max":536,"o":"m 42 109 l 42 109 q 42 121 49 129 l 49 129 q 86 108 116 93 q 146 79 198 65 q 250 51 310 51 l 310 51 q 371 51 412 74 q 452 97 452 144 l 452 144 q 452 189 413 214 q 375 238 283 244 l 283 244 q 173 251 111 287 q 49 324 49 398 l 49 398 q 49 454 82 490 q 115 526 167 543 q 218 560 274 560 l 274 560 q 370 560 441 533 q 512 506 512 471 l 512 471 q 512 461 504 450 l 504 450 q 389 503 281 503 l 281 503 q 201 503 164 478 q 126 453 126 413 l 126 413 q 126 371 168 350 q 209 329 298 323 l 298 323 q 413 316 474 276 q 536 236 536 156 l 536 156 q 536 100 503 64 q 471 27 418 11 q 366 -6 305 -6 l 305 -6 q 240 -6 178 12 q 117 29 79 56 q 42 83 42 109 z"},"ഠ":{"ha":653,"x_min":42,"x_max":612,"o":"m 42 277 l 42 277 q 42 363 80 427 q 118 491 182 525 q 247 560 324 560 l 324 560 q 400 560 466 525 q 532 491 572 427 q 612 362 612 277 l 612 277 q 612 191 572 127 q 532 63 466 28 q 400 -6 324 -6 l 324 -6 q 247 -6 182 28 q 118 63 80 126 q 42 190 42 277 z m 513 277 l 513 277 q 513 349 485 399 q 458 450 411 475 q 365 500 310 500 l 310 500 q 254 500 206 474 q 158 448 129 398 q 100 347 100 277 l 100 277 q 100 206 129 156 q 158 105 206 80 q 254 54 310 54 l 310 54 q 365 54 411 79 q 458 104 485 154 q 513 204 513 277 z"},"ഡ":{"ha":1227,"x_min":42,"x_max":1186,"o":"m 1186 256 l 1186 256 q 1186 172 1152 113 q 1118 54 1064 24 q 1010 -6 950 -6 l 950 -6 q 891 -6 841 19 q 791 44 761 89 l 761 89 q 738 43 693 19 q 648 -6 595 -6 l 595 -6 q 512 -6 458 42 q 404 90 404 166 l 404 166 l 404 325 q 404 403 365 451 q 326 500 262 500 l 262 500 q 221 500 184 477 q 146 453 123 407 q 100 361 100 298 l 100 298 q 100 201 140 130 q 181 59 250 11 l 250 11 q 236 -6 213 -6 l 213 -6 q 178 -6 138 36 q 97 78 69 148 q 42 218 42 298 l 42 298 q 42 382 75 441 q 109 500 163 530 q 217 560 277 560 l 277 560 q 378 560 439 496 q 499 432 499 324 l 499 324 l 499 181 q 499 123 529 89 q 558 54 618 54 l 618 54 q 666 54 697 90 q 729 125 729 181 l 729 181 l 729 554 l 823 554 l 823 199 q 823 131 858 93 q 893 54 955 54 l 955 54 q 999 54 1038 76 q 1078 99 1102 144 q 1127 190 1127 256 l 1127 256 q 1127 353 1087 424 q 1046 495 977 542 l 977 542 q 991 560 1014 560 l 1014 560 q 1049 560 1089 518 q 1130 476 1158 406 q 1186 336 1186 256 z"},"ഢ":{"ha":1370,"x_min":42,"x_max":1328,"o":"m 1328 302 l 1328 302 q 1328 204 1284 134 q 1240 64 1169 29 q 1098 -6 1018 -6 l 1018 -6 q 946 -6 879 23 q 811 52 771 113 l 771 113 q 753 58 706 26 q 658 -6 595 -6 l 595 -6 q 512 -6 458 42 q 404 90 404 166 l 404 166 l 404 325 q 404 403 365 451 q 326 500 262 500 l 262 500 q 221 500 184 477 q 146 453 123 407 q 100 361 100 298 l 100 298 q 100 201 140 130 q 181 59 250 11 l 250 11 q 236 -6 213 -6 l 213 -6 q 178 -6 138 36 q 97 78 69 148 q 42 218 42 298 l 42 298 q 42 382 75 441 q 109 500 163 530 q 217 560 277 560 l 277 560 q 378 560 439 496 q 499 432 499 324 l 499 324 l 499 181 q 499 123 529 89 q 558 54 618 54 l 618 54 q 666 54 697 90 q 729 125 729 181 l 729 181 l 729 273 l 729 554 l 823 554 l 823 261 q 823 166 878 110 q 934 54 1029 54 l 1029 54 q 1092 54 1148 82 q 1204 111 1238 167 q 1272 224 1272 304 l 1272 304 l 1271 328 q 1245 285 1204 259 q 1163 232 1111 232 l 1111 232 q 1039 232 992 278 q 945 324 945 395 l 945 395 q 945 469 993 514 q 1041 560 1118 560 l 1118 560 q 1185 560 1233 523 q 1280 487 1304 428 q 1328 369 1328 302 z m 1261 388 l 1261 388 q 1243 441 1210 471 q 1177 501 1136 501 l 1136 501 q 1089 501 1064 472 q 1039 443 1039 397 l 1039 397 q 1039 351 1066 323 q 1092 294 1134 294 l 1134 294 q 1174 294 1207 322 q 1241 349 1261 388 z"},"ണ":{"ha":1404,"x_min":42,"x_max":1362,"o":"m 1362 265 l 1362 265 q 1362 181 1335 119 q 1308 58 1267 25 q 1226 -8 1187 -8 l 1187 -8 q 1163 -8 1147 0 l 1147 0 q 1201 39 1232 111 q 1264 182 1264 263 l 1264 263 q 1264 341 1242 394 q 1221 448 1184 474 q 1148 500 1104 500 l 1104 500 q 1043 500 1004 459 q 965 419 965 355 l 965 355 l 965 0 l 870 0 l 870 373 q 870 431 842 465 q 813 500 754 500 l 754 500 q 700 500 670 466 q 641 433 641 377 l 641 377 l 641 373 l 641 0 l 545 0 l 545 292 q 545 389 490 444 q 435 500 340 500 l 340 500 q 277 500 222 471 q 166 443 132 386 q 97 330 97 250 l 97 250 l 99 226 q 125 269 166 295 q 207 322 259 322 l 259 322 q 331 322 377 276 q 424 229 424 159 l 424 159 q 424 85 377 40 q 329 -6 252 -6 l 252 -6 q 185 -6 137 31 q 89 67 65 126 q 42 185 42 251 l 42 251 q 42 350 85 419 q 129 489 200 524 q 271 560 352 560 l 352 560 q 423 560 488 535 q 553 510 594 454 l 594 454 q 613 504 659 532 q 706 560 767 560 l 767 560 q 826 560 870 534 q 915 509 939 467 l 939 467 q 966 513 1012 536 q 1058 560 1115 560 l 1115 560 q 1184 560 1240 526 q 1296 493 1329 426 q 1362 359 1362 265 z m 108 166 l 108 166 q 127 113 160 83 q 192 52 234 52 l 234 52 q 280 52 305 81 q 331 110 331 157 l 331 157 q 331 203 304 231 q 277 259 235 259 l 235 259 q 196 259 162 232 q 129 205 108 166 z"},"ത":{"ha":958,"x_min":42,"x_max":917,"o":"m 917 255 l 917 255 q 917 175 890 115 q 862 55 822 24 q 781 -8 741 -8 l 741 -8 q 717 -8 702 0 l 702 0 q 754 38 786 107 q 818 176 818 254 l 818 254 q 818 333 787 389 q 755 444 703 472 q 651 500 591 500 l 591 500 q 559 500 529 492 l 529 492 q 583 447 613 381 q 644 314 644 240 l 644 240 q 644 172 620 116 q 597 61 552 28 q 507 -5 445 -5 l 445 -5 q 361 -5 313 54 q 264 113 264 214 l 264 214 q 264 305 299 374 q 334 444 395 489 l 395 489 q 363 500 327 500 l 327 500 q 264 500 212 469 q 160 437 130 380 q 100 324 100 254 l 100 254 q 100 173 137 112 q 175 51 238 11 l 238 11 q 226 -6 201 -6 l 201 -6 q 168 -6 130 29 q 93 64 67 124 q 42 185 42 256 l 42 256 q 42 347 82 416 q 122 485 189 522 q 256 560 336 560 l 336 560 q 408 560 468 531 l 468 531 q 536 559 609 559 l 609 559 q 690 559 761 524 q 831 490 874 421 q 917 353 917 255 z m 449 458 l 449 458 q 392 421 358 358 q 324 294 324 208 l 324 208 q 324 138 354 94 q 384 51 435 51 l 435 51 q 487 51 519 97 q 551 142 551 229 l 551 229 q 551 294 525 356 q 499 419 449 458 z"},"ഥ":{"ha":891,"x_min":68,"x_max":828,"o":"m 68 0 l 68 554 l 163 554 l 163 54 l 353 54 l 353 324 q 353 433 416 496 q 478 560 587 560 l 587 560 q 666 560 720 526 q 774 493 801 435 q 828 378 828 306 l 828 306 l 828 0 l 68 0 z m 448 54 l 769 54 l 769 313 q 769 401 725 451 q 681 500 605 500 l 605 500 q 528 500 488 453 q 448 407 448 325 l 448 325 l 448 54 z"},"ദ":{"ha":625,"x_min":49,"x_max":581,"o":"m 49 233 l 49 233 q 49 317 82 392 q 114 466 182 513 q 250 560 351 560 l 351 560 q 450 560 510 516 q 570 473 570 402 l 570 402 q 570 358 539 325 q 507 292 452 280 l 452 280 l 452 276 q 510 266 546 227 q 581 188 581 134 l 581 134 q 581 68 530 31 q 479 -6 389 -6 l 389 -6 q 330 -6 292 13 q 255 32 255 62 l 255 62 q 255 71 259 80 l 259 80 q 289 67 314 61 q 339 54 373 54 l 373 54 q 427 54 457 79 q 488 105 488 151 l 488 151 q 488 198 454 225 q 420 252 362 252 l 362 252 l 299 252 l 299 305 l 361 305 q 413 305 448 331 q 482 357 482 397 l 482 397 q 482 443 443 472 q 404 500 342 500 l 342 500 q 261 500 208 461 q 156 422 132 361 q 107 300 107 233 l 107 233 q 107 167 120 115 q 132 63 167 -3 l 167 -3 q 159 -9 146 -9 l 146 -9 q 125 -9 102 17 q 80 43 64 98 q 49 152 49 233 z"},"ധ":{"ha":938,"x_min":42,"x_max":896,"o":"m 896 275 l 896 275 q 896 198 867 134 q 838 70 784 32 q 729 -6 656 -6 l 656 -6 q 591 -6 544 22 q 497 50 471 100 l 471 100 q 445 47 397 21 q 350 -6 289 -6 l 289 -6 q 220 -6 164 28 q 107 61 74 128 q 42 194 42 289 l 42 289 q 42 373 69 434 q 96 496 137 529 q 178 562 217 562 l 217 562 q 241 562 257 554 l 257 554 q 203 515 172 443 q 140 372 140 291 l 140 291 q 140 213 162 159 q 183 106 219 80 q 256 54 300 54 l 300 54 q 361 54 400 94 q 439 135 439 198 l 439 198 l 439 554 l 534 554 l 534 199 q 534 133 570 93 q 605 54 665 54 l 665 54 q 720 54 759 84 q 798 114 818 164 q 838 213 838 271 l 838 271 q 838 356 806 421 q 774 486 700 542 l 700 542 q 712 560 736 560 l 736 560 q 768 560 806 523 q 844 486 870 421 q 896 356 896 275 z"},"ന":{"ha":938,"x_min":41,"x_max":896,"o":"m 896 265 l 896 265 q 896 181 869 119 q 841 58 801 25 q 760 -8 720 -8 l 720 -8 q 696 -8 681 0 l 681 0 q 734 39 766 111 q 797 182 797 263 l 797 263 q 797 341 776 394 q 754 448 718 474 q 682 500 637 500 l 637 500 q 577 500 538 459 q 499 419 499 355 l 499 355 l 499 0 l 404 0 l 404 354 q 404 421 368 460 q 332 500 272 500 l 272 500 q 218 500 179 470 q 140 439 120 390 q 100 340 100 283 l 100 283 q 100 197 131 132 q 163 67 238 11 l 238 11 q 226 -6 201 -6 l 201 -6 q 169 -6 132 31 q 94 67 67 133 q 41 198 41 279 l 41 279 q 41 355 70 420 q 99 484 154 522 q 208 560 282 560 l 282 560 q 347 560 394 531 q 441 503 467 454 l 467 454 q 492 506 540 533 q 588 560 649 560 l 649 560 q 718 560 774 526 q 830 493 863 426 q 896 359 896 265 z"},"പ":{"ha":924,"x_min":34,"x_max":856,"o":"m 761 554 l 856 554 l 856 0 l 265 0 l 255 17 q 274 36 290 54 q 306 73 320 105 q 333 137 333 177 l 333 177 q 333 230 300 265 q 267 299 216 299 l 216 299 q 162 299 128 262 q 93 225 93 167 l 93 167 q 93 115 118 76 q 143 38 180 14 l 180 14 q 174 3 167 -1 q 160 -6 148 -6 l 148 -6 q 122 -6 95 17 q 69 39 52 79 q 34 119 34 167 l 34 167 q 34 253 88 306 q 143 360 228 360 l 228 360 q 281 360 326 338 q 371 316 398 276 q 424 235 424 182 l 424 182 q 424 147 410 113 q 396 79 367 54 l 367 54 l 761 54 l 761 554 z"},"ഫ":{"ha":1114,"x_min":34,"x_max":1050,"o":"m 1050 306 l 1050 306 l 1050 0 l 265 0 l 255 17 q 274 36 290 54 q 306 73 320 105 q 333 137 333 177 l 333 177 q 333 230 300 265 q 267 299 216 299 l 216 299 q 162 299 128 262 q 93 225 93 167 l 93 167 q 93 115 118 76 q 143 38 180 14 l 180 14 q 174 3 167 -1 q 160 -6 148 -6 l 148 -6 q 122 -6 95 17 q 69 39 52 79 q 34 119 34 167 l 34 167 q 34 253 88 306 q 143 360 228 360 l 228 360 q 281 360 326 338 q 371 316 398 276 q 424 235 424 182 l 424 182 q 424 147 410 113 q 396 79 367 54 l 367 54 l 576 54 l 576 324 q 576 433 638 496 q 701 560 810 560 l 810 560 q 889 560 943 526 q 997 493 1024 435 q 1050 378 1050 306 z m 992 54 l 992 313 q 992 401 948 451 q 904 500 828 500 l 828 500 q 751 500 711 453 q 671 407 671 325 l 671 325 l 671 54 l 992 54 z"},"ബ":{"ha":1373,"x_min":42,"x_max":1305,"o":"m 1209 554 l 1305 554 l 1305 0 l 854 0 l 844 17 q 890 60 915 126 q 939 193 939 263 l 939 263 q 939 341 918 394 q 896 448 860 474 q 824 500 779 500 l 779 500 q 719 500 680 459 q 641 419 641 355 l 641 355 l 641 0 l 545 0 l 545 296 q 545 391 490 446 q 436 500 340 500 l 340 500 q 277 500 222 471 q 166 443 132 386 q 97 330 97 250 l 97 250 l 99 226 q 125 269 166 295 q 207 322 259 322 l 259 322 q 331 322 377 276 q 424 229 424 159 l 424 159 q 424 85 377 40 q 329 -6 252 -6 l 252 -6 q 185 -6 137 31 q 89 67 65 126 q 42 185 42 251 l 42 251 q 42 350 85 419 q 129 489 200 524 q 271 560 352 560 l 352 560 q 426 560 493 531 q 561 503 603 441 l 603 441 q 628 499 678 529 q 728 560 791 560 l 791 560 q 859 560 915 527 q 971 495 1005 430 q 1038 366 1038 275 l 1038 275 q 1038 208 1015 151 q 992 93 954 54 l 954 54 l 1209 54 l 1209 554 z m 108 166 l 108 166 q 127 113 160 83 q 192 52 234 52 l 234 52 q 280 52 305 81 q 331 110 331 157 l 331 157 q 331 203 304 231 q 277 259 235 259 l 235 259 q 196 259 162 232 q 129 205 108 166 z"},"ഭ":{"ha":634,"x_min":49,"x_max":600,"o":"m 49 233 l 49 233 q 49 324 84 398 q 119 472 194 516 q 268 560 380 560 l 380 560 q 472 560 530 524 q 587 489 587 433 l 587 433 q 587 382 550 357 q 513 333 450 333 l 450 333 l 413 333 q 380 333 360 320 q 340 308 340 282 l 340 282 q 340 256 362 243 q 384 230 419 230 l 419 230 l 465 230 q 525 230 563 200 q 600 171 600 123 l 600 123 q 600 66 549 30 q 497 -6 416 -6 l 416 -6 q 357 -6 320 13 q 282 32 282 62 l 282 62 q 282 71 287 80 l 287 80 q 319 66 346 59 q 374 52 412 52 l 412 52 q 451 52 474 71 q 498 89 498 119 l 498 119 q 498 147 479 161 q 460 175 427 175 l 427 175 l 386 175 q 323 175 285 204 q 247 234 247 283 l 247 283 q 247 331 283 359 q 319 388 380 388 l 380 388 l 412 388 q 447 388 471 402 q 494 416 494 440 l 494 440 q 494 469 462 484 q 430 500 376 500 l 376 500 q 248 500 177 432 q 107 363 107 233 l 107 233 q 107 167 120 115 q 132 63 167 -3 l 167 -3 q 159 -9 146 -9 l 146 -9 q 125 -9 103 18 q 80 46 64 101 q 49 156 49 233 z"},"മ":{"ha":680,"x_min":61,"x_max":619,"o":"m 619 313 l 619 313 l 619 0 l 61 0 l 61 310 q 61 390 99 447 q 137 503 200 531 q 264 560 341 560 l 341 560 q 417 560 480 530 q 543 500 581 445 q 619 389 619 313 z m 523 54 l 523 315 q 523 398 469 449 q 414 500 326 500 l 326 500 q 293 500 265 494 l 265 494 q 330 491 370 449 q 410 408 410 345 l 410 345 q 410 273 351 197 q 292 120 186 54 l 186 54 l 523 54 z m 120 315 l 120 54 q 166 89 212 143 q 257 198 287 257 q 316 317 316 366 l 316 366 q 316 414 292 441 q 268 467 230 467 l 230 467 q 181 467 150 425 q 120 382 120 315 l 120 315 z"},"യ":{"ha":999,"x_min":42,"x_max":958,"o":"m 958 308 l 958 308 q 958 210 913 139 q 869 68 796 31 q 722 -6 637 -6 l 637 -6 q 565 -6 497 23 l 497 23 q 430 -6 358 -6 l 358 -6 q 264 -6 192 38 q 120 81 81 155 q 42 228 42 314 l 42 314 q 42 423 100 490 q 159 556 255 556 l 255 556 q 289 556 321 545 q 354 535 375 515 l 375 515 q 429 560 500 560 l 500 560 q 554 560 600 535 q 647 510 676 457 q 705 405 705 327 l 705 327 q 705 251 667 180 q 628 109 562 61 l 562 61 q 589 55 619 55 l 619 55 q 682 55 737 84 q 792 113 825 171 q 859 229 859 312 l 859 312 q 859 386 827 449 q 796 513 743 551 l 743 551 q 758 560 779 560 l 779 560 q 822 560 863 527 q 905 495 931 437 q 958 379 958 308 z m 427 65 l 427 65 q 367 110 333 178 q 298 246 298 332 l 298 332 q 298 415 337 474 l 337 474 q 321 488 298 494 q 274 500 252 500 l 252 500 q 182 500 140 450 q 99 400 99 315 l 99 315 q 99 245 130 185 q 161 125 216 89 q 272 54 344 54 l 344 54 q 389 54 427 65 z m 356 333 l 356 333 q 356 248 392 186 q 427 124 486 90 l 486 90 q 548 126 580 193 q 612 259 612 333 l 612 333 q 612 407 576 453 q 541 500 485 500 l 485 500 q 452 500 422 481 q 393 461 375 424 q 356 386 356 333 z"},"ര":{"ha":684,"x_min":42,"x_max":643,"o":"m 643 240 l 643 240 q 643 172 619 116 q 596 61 551 28 q 506 -5 444 -5 l 444 -5 q 360 -5 312 53 q 263 111 263 209 l 263 209 q 263 286 298 362 q 333 438 389 493 l 389 493 q 366 500 341 501 l 341 501 q 233 501 167 432 q 100 364 100 254 l 100 254 q 100 173 137 112 q 175 51 238 11 l 238 11 q 226 -6 201 -6 l 201 -6 q 168 -6 130 29 q 93 64 67 124 q 42 185 42 256 l 42 256 q 42 349 83 418 q 125 486 195 523 q 265 560 348 560 l 348 560 q 435 560 502 519 q 569 478 606 405 q 643 332 643 240 z m 441 467 l 441 467 q 385 414 354 344 q 323 274 323 199 l 323 199 q 323 132 353 92 q 383 51 434 51 l 434 51 q 486 51 518 97 q 550 142 550 229 l 550 229 q 550 300 522 365 q 494 430 441 467 z"},"ല":{"ha":818,"x_min":61,"x_max":750,"o":"m 655 554 l 750 554 l 750 0 l 61 0 l 61 339 q 61 411 89 461 q 118 510 166 535 q 214 560 273 560 l 273 560 q 377 560 432 503 q 488 446 488 332 l 488 332 l 488 221 l 156 221 l 156 54 l 655 54 l 655 554 z m 156 340 l 156 340 l 156 274 l 429 274 l 429 338 q 429 500 296 500 l 296 500 q 231 500 194 462 q 156 423 156 340 z"},"വ":{"ha":913,"x_min":42,"x_max":845,"o":"m 750 554 l 845 554 l 845 0 l 358 0 l 348 17 q 415 59 450 128 q 485 197 485 272 l 485 272 q 485 333 462 385 q 440 437 397 469 q 354 500 296 500 l 296 500 q 245 500 200 473 q 155 446 128 392 q 100 337 100 259 l 100 259 q 100 177 137 114 q 173 51 235 11 l 235 11 q 227 -6 199 -6 l 199 -6 q 166 -6 129 30 q 92 65 67 127 q 42 188 42 261 l 42 261 q 42 356 79 424 q 117 491 178 525 q 240 560 310 560 l 310 560 q 392 560 453 521 q 514 483 546 420 q 578 357 578 286 l 578 286 q 578 219 549 158 q 520 97 462 54 l 462 54 l 750 54 l 750 554 z"},"ശ":{"ha":1033,"x_min":42,"x_max":992,"o":"m 992 240 l 992 240 q 992 172 969 116 q 945 61 900 28 q 855 -5 793 -5 l 793 -5 q 709 -5 661 53 q 612 111 612 209 l 612 209 q 612 286 647 362 q 683 438 739 493 l 739 493 q 714 500 690 500 l 690 500 q 640 500 596 479 q 552 457 526 416 q 499 374 499 316 l 499 316 l 499 229 q 499 123 439 58 q 378 -6 277 -6 l 277 -6 q 217 -6 163 24 q 109 54 75 113 q 42 172 42 256 l 42 256 q 42 336 69 406 q 97 476 138 518 q 178 560 213 560 l 213 560 q 236 560 250 542 l 250 542 q 181 495 140 424 q 100 353 100 256 l 100 256 q 100 192 123 146 q 146 101 184 77 q 221 54 262 54 l 262 54 q 326 54 365 102 q 404 151 404 229 l 404 229 l 404 312 q 404 390 445 446 q 485 502 552 531 q 620 560 697 560 l 697 560 q 784 560 851 519 q 918 478 955 405 q 992 332 992 240 z m 792 468 l 792 468 q 734 415 703 344 q 672 274 672 199 l 672 199 q 672 132 702 92 q 732 51 783 51 l 783 51 q 835 51 867 97 q 899 142 899 228 l 899 228 q 899 305 870 369 q 841 433 792 468 z"},"ഷ":{"ha":1119,"x_min":34,"x_max":1050,"o":"m 1025 554 l 1050 548 l 1050 0 l 265 0 l 255 17 q 274 36 290 54 q 306 73 320 105 q 333 137 333 177 l 333 177 q 333 230 300 265 q 267 299 216 299 l 216 299 q 162 299 128 262 q 93 225 93 167 l 93 167 q 93 115 118 76 q 143 38 180 14 l 180 14 q 174 3 167 -1 q 160 -6 148 -6 l 148 -6 q 122 -6 95 17 q 69 39 52 79 q 34 119 34 167 l 34 167 q 34 253 88 306 q 143 360 228 360 l 228 360 q 281 360 326 338 q 371 316 398 276 q 424 235 424 182 l 424 182 q 424 147 410 113 q 396 79 367 54 l 367 54 l 654 54 l 654 229 q 563 241 512 291 q 460 341 460 416 l 460 416 q 460 480 500 520 q 540 560 604 560 l 604 560 q 641 560 674 542 q 708 524 728 489 q 749 454 749 404 l 749 404 l 749 283 q 809 294 865 328 q 922 363 965 420 q 1008 478 1025 554 l 1025 554 z m 654 282 l 654 282 l 654 413 q 654 452 637 476 q 621 500 587 500 l 587 500 q 552 500 532 477 q 511 455 511 418 l 511 418 q 511 362 550 327 q 589 292 654 282 z m 955 54 l 955 332 q 914 291 860 265 q 807 238 749 230 l 749 230 l 749 54 l 955 54 z"},"സ":{"ha":1227,"x_min":42,"x_max":1186,"o":"m 1186 256 l 1186 256 q 1186 172 1152 113 q 1118 54 1064 24 q 1010 -6 950 -6 l 950 -6 q 849 -6 788 58 q 728 122 728 229 l 728 229 l 728 373 q 728 431 698 465 q 669 500 609 500 l 609 500 q 562 500 530 464 q 499 429 499 373 l 499 373 l 499 0 l 404 0 l 404 354 q 404 422 369 461 q 334 500 272 500 l 272 500 q 229 500 189 478 q 149 455 125 409 q 100 364 100 298 l 100 298 q 100 201 140 130 q 181 59 250 11 l 250 11 q 236 -6 213 -6 l 213 -6 q 178 -6 138 36 q 97 78 69 148 q 42 218 42 298 l 42 298 q 42 382 75 441 q 109 500 163 530 q 217 560 277 560 l 277 560 q 336 560 386 534 q 437 509 466 464 l 466 464 q 489 511 534 535 q 579 560 632 560 l 632 560 q 715 560 769 511 q 823 463 823 388 l 823 388 l 823 229 q 823 151 862 102 q 901 54 965 54 l 965 54 q 1006 54 1043 77 q 1081 101 1104 146 q 1127 192 1127 256 l 1127 256 q 1127 353 1087 424 q 1046 495 977 542 l 977 542 q 991 560 1014 560 l 1014 560 q 1049 560 1089 518 q 1130 476 1158 406 q 1186 336 1186 256 z"},"ഹ":{"ha":1145,"x_min":34,"x_max":1103,"o":"m 1103 270 l 1103 270 q 1103 194 1077 131 q 1051 68 1006 31 q 961 -6 907 -6 l 907 -6 q 885 -6 873 2 l 873 2 q 933 45 969 115 q 1004 185 1004 271 l 1004 271 q 1004 345 978 397 q 951 449 908 476 q 865 502 816 502 l 816 502 q 764 502 719 475 q 675 448 648 396 q 622 343 622 270 l 622 270 q 622 200 652 134 q 681 67 740 18 l 740 18 l 730 0 l 265 0 l 255 17 q 274 36 290 54 q 306 73 320 105 q 333 137 333 177 l 333 177 q 333 230 300 265 q 267 299 216 299 l 216 299 q 162 299 128 262 q 93 225 93 167 l 93 167 q 93 115 118 76 q 143 38 180 14 l 180 14 q 174 3 167 -1 q 160 -6 148 -6 l 148 -6 q 122 -6 95 17 q 69 39 52 79 q 34 119 34 167 l 34 167 q 34 253 88 306 q 143 360 228 360 l 228 360 q 281 360 326 338 q 371 316 398 276 q 424 235 424 182 l 424 182 q 424 147 410 113 q 396 79 367 54 l 367 54 l 638 54 q 601 102 582 157 q 563 213 563 270 l 563 270 q 563 358 599 425 q 635 491 695 526 q 756 562 829 562 l 829 562 q 905 562 968 524 q 1030 486 1067 420 q 1103 353 1103 270 z"},"ഩ":{"ha":1080,"x_min":42,"x_max":1038,"o":"m 1038 278 l 1038 278 q 1038 198 1011 133 q 984 68 942 31 q 900 -6 860 -6 l 860 -6 q 841 -6 830 0 l 830 0 q 890 58 915 126 q 939 194 939 277 l 939 277 q 939 383 897 441 q 855 500 779 500 l 779 500 q 719 500 680 459 q 641 419 641 355 l 641 355 l 641 0 l 545 0 l 545 292 q 545 389 490 444 q 435 500 340 500 l 340 500 q 277 500 222 471 q 166 443 132 386 q 97 330 97 250 l 97 250 l 99 226 q 125 269 166 295 q 207 322 259 322 l 259 322 q 331 322 377 276 q 424 229 424 159 l 424 159 q 424 85 377 40 q 329 -6 252 -6 l 252 -6 q 185 -6 137 31 q 89 67 65 126 q 42 185 42 251 l 42 251 q 42 350 85 419 q 129 489 200 524 q 271 560 352 560 l 352 560 q 427 560 493 532 q 560 505 601 445 l 601 445 q 628 502 678 531 q 728 560 791 560 l 791 560 q 906 560 972 484 q 1038 409 1038 278 z m 108 166 l 108 166 q 127 113 160 83 q 192 52 234 52 l 234 52 q 280 52 305 81 q 331 110 331 157 l 331 157 q 331 203 304 231 q 277 259 235 259 l 235 259 q 196 259 162 232 q 129 205 108 166 z"},"ഺ":{"ha":792,"x_min":55,"x_max":758,"o":"m 758 54 l 758 0 l 483 0 l 483 -169 l 388 -169 l 388 0 l 88 0 l 55 46 l 244 554 l 348 554 l 160 54 l 758 54 z"},"റ":{"ha":653,"x_min":42,"x_max":611,"o":"m 391 0 l 391 0 q 446 39 479 110 q 513 181 513 259 l 513 259 q 513 330 485 385 q 458 440 412 470 q 365 500 310 500 l 310 500 q 255 500 207 473 q 159 446 130 392 q 100 338 100 263 l 100 263 q 100 179 137 116 q 173 52 235 11 l 235 11 q 223 -6 199 -6 l 199 -6 q 166 -6 129 30 q 92 66 67 128 q 42 189 42 263 l 42 263 q 42 355 80 422 q 119 489 183 524 q 247 560 321 560 l 321 560 q 406 560 472 521 q 538 481 575 412 q 611 342 611 255 l 611 255 q 611 175 583 115 q 555 55 513 24 q 471 -8 431 -8 l 431 -8 q 407 -8 391 0 z"},"ള":{"ha":685,"x_min":49,"x_max":641,"o":"m 49 -70 l 49 -70 q 49 -14 89 20 q 130 54 195 54 l 195 54 l 458 54 q 498 54 523 78 q 548 102 548 139 l 548 139 q 548 182 516 210 q 483 238 433 238 l 433 238 l 433 285 q 480 285 507 308 q 534 330 534 375 l 534 375 q 534 430 478 465 q 423 500 339 500 l 339 500 q 244 500 180 460 q 116 419 102 351 l 102 351 q 121 382 153 401 q 185 420 225 420 l 225 420 q 291 420 332 379 q 374 339 374 275 l 374 275 q 374 210 331 169 q 288 128 219 128 l 219 128 q 167 128 128 154 q 89 180 69 222 q 49 265 49 314 l 49 314 q 49 384 85 440 q 121 496 188 528 q 256 560 346 560 l 346 560 q 423 560 487 538 q 551 517 589 476 q 626 435 626 377 l 626 377 q 626 288 538 265 l 538 265 l 538 260 q 585 252 613 220 q 641 188 641 142 l 641 142 q 641 105 622 73 q 603 41 564 20 q 525 0 471 0 l 471 0 l 197 0 q 155 0 133 -17 q 111 -33 111 -61 l 111 -61 q 111 -86 134 -103 q 157 -119 202 -119 l 202 -119 l 641 -119 l 641 -201 l 228 -201 q 140 -201 94 -166 q 49 -130 49 -70 z m 287 275 l 287 275 q 287 315 264 340 q 242 365 207 365 l 207 365 q 136 365 98 281 l 98 281 q 108 236 138 211 q 167 186 204 186 l 204 186 q 243 186 265 211 q 287 236 287 275 z"},"ഴ":{"ha":624,"x_min":34,"x_max":592,"o":"m 439 208 l 439 208 q 457 170 457 134 l 457 134 q 457 67 417 31 q 376 -5 304 -5 l 304 -5 q 249 -5 207 17 q 166 39 166 68 l 166 68 q 166 79 172 89 l 172 89 q 217 54 272 54 l 272 54 q 313 54 338 76 q 363 99 363 134 l 363 134 q 363 160 351 188 l 351 188 l 319 187 q 230 187 166 215 q 102 243 68 291 q 34 339 34 399 l 34 399 q 34 446 53 482 q 72 518 102 538 q 132 557 166 557 l 166 557 q 179 557 190 554 l 190 554 q 162 529 146 491 q 131 453 131 417 l 131 417 q 131 341 179 296 q 228 250 314 245 l 314 245 q 292 274 280 296 q 267 317 258 345 q 249 373 249 405 l 249 405 q 249 476 295 518 q 341 560 422 560 l 422 560 q 495 560 543 515 q 592 470 592 401 l 592 401 q 592 333 550 283 q 507 233 439 208 z m 533 403 l 533 403 q 533 446 506 473 q 479 500 438 500 l 438 500 q 395 500 369 474 q 343 448 343 406 l 343 406 q 343 375 357 346 q 371 318 398 277 l 398 277 l 412 256 q 466 272 499 310 q 533 348 533 403 z"},"ൿ":{"ha":1151,"x_min":39,"x_max":1112,"o":"m 1112 144 l 1112 144 q 1112 77 1067 36 q 1022 -6 954 -6 l 954 -6 q 879 -6 835 38 q 791 82 791 156 l 791 156 q 791 211 815 264 l 815 264 l 722 264 q 718 134 660 64 q 603 -6 500 -6 l 500 -6 q 397 -6 339 76 l 339 76 q 292 -5 200 -5 l 200 -5 q 127 -5 83 35 q 39 76 39 144 l 39 144 q 39 221 95 265 q 152 310 249 310 l 249 310 l 287 310 q 295 427 351 493 q 408 560 500 560 l 500 560 q 599 560 656 495 q 713 431 721 310 l 721 310 l 841 310 q 862 343 917 407 l 917 407 q 955 453 977 483 q 1000 513 1015 550 q 1030 586 1030 626 l 1030 626 q 1030 676 1004 704 q 977 733 924 733 l 924 733 q 897 733 870 722 l 870 722 q 875 756 906 781 q 936 805 977 805 l 977 805 q 1035 805 1069 767 q 1103 728 1103 663 l 1103 663 q 1103 602 1083 551 q 1063 500 1035 461 q 1007 422 961 369 l 961 369 q 931 334 911 309 l 911 309 q 1005 305 1059 261 q 1112 217 1112 144 z m 345 310 l 345 310 l 625 310 q 622 397 593 449 q 564 500 493 500 l 493 500 q 431 500 391 449 q 352 398 345 310 z m 309 134 l 309 134 q 288 190 286 264 l 286 264 l 260 264 q 202 264 167 235 q 132 207 132 147 l 132 147 q 132 96 154 72 q 176 48 208 48 l 208 48 q 237 48 264 69 q 291 89 309 134 z m 626 264 l 626 264 l 343 264 q 347 165 387 109 q 427 54 493 54 l 493 54 q 568 54 596 111 q 625 167 626 264 z m 1016 150 l 1016 150 q 1016 208 981 236 q 946 264 880 264 l 880 264 l 880 264 q 849 210 849 157 l 849 157 q 849 110 873 82 q 897 54 937 54 l 937 54 q 971 54 994 81 q 1016 107 1016 150 z"},"ൺ":{"ha":1500,"x_min":42,"x_max":1459,"o":"m 1459 225 l 1459 225 q 1459 161 1436 109 q 1413 57 1367 26 q 1322 -5 1260 -5 l 1260 -5 q 1177 -5 1128 53 q 1080 111 1080 209 l 1080 209 q 1080 347 1207 483 l 1207 483 q 1167 501 1125 501 l 1125 501 q 1054 501 1010 458 q 965 414 965 343 l 965 343 l 965 0 l 870 0 l 870 373 q 870 431 842 465 q 813 500 754 500 l 754 500 q 700 500 670 466 q 641 433 641 377 l 641 377 l 641 373 l 641 0 l 545 0 l 545 292 q 545 389 490 444 q 435 500 340 500 l 340 500 q 277 500 222 471 q 166 443 132 386 q 97 330 97 250 l 97 250 l 99 226 q 125 269 166 295 q 207 322 259 322 l 259 322 q 331 322 377 276 q 424 229 424 159 l 424 159 q 424 85 377 40 q 329 -6 252 -6 l 252 -6 q 185 -6 137 31 q 89 67 65 126 q 42 185 42 251 l 42 251 q 42 350 85 419 q 129 489 200 524 q 271 560 352 560 l 352 560 q 423 560 488 535 q 553 510 594 454 l 594 454 q 613 504 659 532 q 706 560 767 560 l 767 560 q 831 560 876 531 q 922 502 945 456 l 945 456 q 976 506 1032 533 q 1087 560 1157 560 l 1157 560 q 1208 560 1257 540 l 1257 540 q 1291 584 1291 630 l 1291 630 q 1291 678 1263 705 q 1236 733 1184 733 l 1184 733 q 1158 733 1130 722 l 1130 722 q 1136 756 1166 781 q 1196 805 1237 805 l 1237 805 q 1295 805 1329 767 q 1363 728 1363 663 l 1363 663 q 1363 584 1311 512 l 1311 512 q 1377 467 1418 392 q 1459 317 1459 225 z m 1367 217 l 1367 217 q 1367 295 1337 356 q 1307 417 1257 454 l 1257 454 q 1140 333 1140 199 l 1140 199 q 1140 132 1170 92 q 1200 51 1250 51 l 1250 51 q 1305 51 1336 96 q 1367 140 1367 217 z m 108 166 l 108 166 q 127 113 160 83 q 192 52 234 52 l 234 52 q 280 52 305 81 q 331 110 331 157 l 331 157 q 331 203 304 231 q 277 259 235 259 l 235 259 q 196 259 162 232 q 129 205 108 166 z"},"ൻ":{"ha":1034,"x_min":41,"x_max":993,"o":"m 993 225 l 993 225 q 993 161 969 109 q 946 57 901 26 q 856 -5 794 -5 l 794 -5 q 710 -5 662 53 q 613 111 613 209 l 613 209 q 613 348 741 484 l 741 484 q 700 501 654 501 l 654 501 q 590 501 544 458 q 499 415 499 355 l 499 355 l 499 0 l 404 0 l 404 354 q 404 421 368 460 q 332 500 272 500 l 272 500 q 218 500 179 470 q 140 439 120 390 q 100 340 100 283 l 100 283 q 100 197 131 132 q 163 67 238 11 l 238 11 q 226 -6 201 -6 l 201 -6 q 169 -6 132 31 q 94 67 67 133 q 41 198 41 279 l 41 279 q 41 355 70 420 q 99 484 154 522 q 208 560 282 560 l 282 560 q 348 560 395 531 q 442 502 468 453 l 468 453 q 498 504 555 532 q 611 560 683 560 l 683 560 q 739 560 792 539 l 792 539 q 826 584 826 630 l 826 630 q 826 678 799 705 q 771 733 719 733 l 719 733 q 693 733 665 722 l 665 722 q 671 756 701 781 q 731 805 772 805 l 772 805 q 830 805 864 767 q 898 728 898 663 l 898 663 q 898 584 845 511 l 845 511 q 913 466 953 390 q 993 314 993 225 z m 900 217 l 900 217 q 900 292 872 354 q 843 416 792 455 l 792 455 q 673 335 673 199 l 673 199 q 673 132 703 92 q 733 51 784 51 l 784 51 q 839 51 870 96 q 900 140 900 217 z"},"ർ":{"ha":684,"x_min":42,"x_max":644,"o":"m 644 240 l 644 240 q 644 172 620 116 q 597 61 552 28 q 507 -5 445 -5 l 445 -5 q 361 -5 313 54 q 264 113 264 214 l 264 214 q 264 295 301 364 q 338 434 397 486 l 397 486 q 362 500 322 500 l 322 500 q 260 500 209 469 q 159 437 129 380 q 100 324 100 254 l 100 254 q 100 173 137 112 q 175 51 238 11 l 238 11 q 226 -6 201 -6 l 201 -6 q 168 -6 130 29 q 93 64 67 124 q 42 185 42 256 l 42 256 q 42 347 81 416 q 120 485 186 522 q 252 560 331 560 l 331 560 q 393 560 449 538 l 449 538 q 483 583 483 630 l 483 630 q 483 678 456 705 q 429 733 377 733 l 377 733 q 351 733 323 722 l 323 722 q 329 756 359 781 q 389 805 430 805 l 430 805 q 488 805 522 767 q 556 728 556 663 l 556 663 q 556 583 502 510 l 502 510 q 568 467 606 395 q 644 322 644 240 z m 449 457 l 449 457 q 395 411 360 347 q 324 284 324 208 l 324 208 q 324 138 354 94 q 384 51 435 51 l 435 51 q 487 51 519 97 q 551 142 551 229 l 551 229 q 551 294 525 356 q 499 417 449 457 z"},"ൽ":{"ha":1095,"x_min":42,"x_max":1051,"o":"m 1051 220 l 1051 220 q 1051 158 1028 107 q 1005 56 961 25 q 917 -5 856 -5 l 856 -5 q 771 -5 721 53 q 671 111 671 209 l 671 209 q 671 343 792 476 l 792 476 q 725 506 652 506 l 652 506 q 584 506 530 490 l 530 490 q 584 445 614 379 q 644 313 644 240 l 644 240 q 644 172 620 116 q 597 61 552 28 q 507 -5 445 -5 l 445 -5 q 361 -5 313 54 q 264 113 264 214 l 264 214 q 264 296 302 367 q 339 438 400 485 l 400 485 q 363 500 322 500 l 322 500 q 260 500 209 469 q 159 437 129 380 q 100 324 100 254 l 100 254 q 100 173 137 112 q 175 51 238 11 l 238 11 q 226 -6 201 -6 l 201 -6 q 168 -6 130 29 q 93 64 67 124 q 42 185 42 256 l 42 256 q 42 347 81 416 q 120 485 186 522 q 252 560 331 560 l 331 560 q 409 560 475 526 l 475 526 q 557 560 669 560 l 669 560 q 759 560 840 526 l 840 526 q 885 577 885 630 l 885 630 q 885 678 858 705 q 831 733 778 733 l 778 733 q 752 733 724 722 l 724 722 q 730 756 760 781 q 791 805 831 805 l 831 805 q 889 805 923 767 q 957 728 957 663 l 957 663 q 957 579 895 499 l 895 499 q 966 455 1009 384 q 1051 313 1051 220 z m 452 455 l 452 455 q 396 414 360 349 q 324 285 324 208 l 324 208 q 324 138 354 94 q 384 51 435 51 l 435 51 q 487 51 519 97 q 551 142 551 229 l 551 229 q 551 292 526 354 q 500 415 452 455 z m 958 217 l 958 217 q 958 294 928 352 q 897 410 844 447 l 844 447 q 731 330 731 199 l 731 199 q 731 132 761 92 q 792 51 842 51 l 842 51 q 897 51 928 96 q 958 140 958 217 z"},"ൾ":{"ha":1034,"x_min":42,"x_max":993,"o":"m 993 240 l 993 240 q 993 172 969 116 q 946 61 901 28 q 856 -5 794 -5 l 794 -5 q 710 -5 662 53 q 613 111 613 209 l 613 209 q 613 285 647 360 q 681 435 736 489 l 736 489 q 704 500 671 501 l 671 501 q 594 501 546 444 q 499 386 499 296 l 499 296 l 499 226 q 499 119 439 55 q 378 -9 277 -9 l 277 -9 q 217 -9 163 21 q 109 51 75 110 q 42 170 42 254 l 42 254 q 42 333 73 404 q 104 475 149 519 q 194 562 230 562 l 230 562 q 251 562 261 545 l 261 545 q 175 479 138 408 q 101 337 101 252 l 101 252 q 101 189 124 143 q 147 97 184 74 q 221 50 262 50 l 262 50 q 326 50 365 99 q 404 147 404 225 l 404 225 l 404 295 q 404 372 437 432 q 469 492 531 526 q 593 560 678 560 l 678 560 q 730 560 779 543 l 779 543 q 811 585 811 630 l 811 630 q 811 678 783 705 q 756 733 704 733 l 704 733 q 678 733 650 722 l 650 722 q 656 756 686 781 q 716 805 757 805 l 757 805 q 815 805 849 767 q 883 728 883 663 l 883 663 q 883 586 834 518 l 834 518 q 907 477 950 403 q 993 330 993 240 z m 788 463 l 788 463 q 732 411 703 342 q 673 272 673 199 l 673 199 q 673 132 703 92 q 733 51 784 51 l 784 51 q 839 51 870 99 q 900 146 900 230 l 900 230 q 900 302 870 365 q 840 427 788 463 z"},"ം":{"ha":476,"x_min":42,"x_max":435,"o":"m 42 203 l 42 203 q 42 254 64 299 q 86 343 131 370 q 176 396 239 396 l 239 396 q 326 396 380 343 q 435 289 435 203 l 435 203 q 435 118 379 64 q 324 9 239 9 l 239 9 q 176 9 131 36 q 86 63 64 107 q 42 151 42 203 z m 348 201 l 348 201 q 348 270 315 309 q 282 349 223 349 l 223 349 q 165 349 128 307 q 92 266 92 202 l 92 202 q 92 139 128 98 q 165 57 223 57 l 223 57 q 279 57 313 93 q 348 129 348 201 z"},"ഁ":{"ha":0,"x_min":-188,"x_max":155,"o":"m -42 773 l -42 773 q -42 790 -30 802 q -18 814 -1 814 l -1 814 q 16 814 28 802 q 40 790 40 773 l 40 773 q 40 756 28 744 q 16 732 -1 732 l -1 732 q -18 732 -30 744 q -42 756 -42 773 z m -188 727 l -188 727 q -188 760 -168 780 q -148 800 -120 800 l -120 800 q -109 800 -96 796 l -96 796 q -103 778 -103 760 l -103 760 q -103 721 -75 697 q -48 672 -1 672 l -1 672 q 43 672 71 696 q 98 719 98 758 l 98 758 q 98 780 89 796 l 89 796 q 98 799 107 799 l 107 799 q 130 799 142 780 q 155 760 155 733 l 155 733 q 155 677 106 641 q 58 604 -18 604 l -18 604 q -70 604 -109 623 q -147 641 -168 669 q -188 697 -188 727 z"},"ഃ":{"ha":312,"x_min":49,"x_max":263,"o":"m 49 419 l 49 419 q 49 466 80 496 q 112 525 159 525 l 159 525 q 203 525 233 495 q 263 465 263 419 l 263 419 q 263 373 233 343 q 203 313 159 313 l 159 313 q 111 313 80 343 q 49 373 49 419 z m 191 419 l 191 419 q 191 448 177 463 q 163 478 142 478 l 142 478 q 121 478 106 462 q 91 446 91 419 l 91 419 q 91 392 106 376 q 121 360 142 360 l 142 360 q 163 360 177 375 q 191 391 191 419 z m 49 113 l 49 113 q 49 159 80 189 q 111 218 160 218 l 160 218 q 204 218 233 188 q 263 158 263 113 l 263 113 q 263 66 233 36 q 203 6 160 6 l 160 6 q 111 6 80 36 q 49 66 49 113 z m 191 113 l 191 113 q 191 141 177 156 q 162 171 142 171 l 142 171 q 121 171 106 156 q 91 140 91 113 l 91 113 q 91 85 106 69 q 121 54 142 54 l 142 54 q 163 54 177 69 q 191 84 191 113 z"},"്":{"ha":0,"x_min":-276,"x_max":42,"o":"m -276 727 l -276 727 q -276 759 -258 779 q -241 800 -213 800 l -213 800 q -201 800 -191 796 l -191 796 q -198 776 -198 755 l -198 755 q -198 717 -173 695 q -148 672 -105 672 l -105 672 q -64 672 -39 694 q -14 716 -14 751 l -14 751 q -14 776 -24 796 l -24 796 q -15 799 -5 799 l -5 799 q 18 799 30 780 q 42 760 42 733 l 42 733 q 42 677 0 641 q -43 604 -111 604 l -111 604 q -164 604 -201 622 q -238 640 -257 668 q -276 696 -276 727 z"},"ഽ":{"ha":236,"x_min":-83,"x_max":319,"o":"m -83 -164 l -83 -164 q -83 -152 -73 -140 l -73 -140 q -34 -156 -3 -156 l -3 -156 q 33 -156 52 -133 q 71 -111 71 -72 l 71 -72 l 71 626 q 71 686 111 723 q 151 759 215 759 l 215 759 q 258 759 289 743 q 319 726 319 703 l 319 703 q 319 692 310 680 l 310 680 q 270 695 240 695 l 240 695 q 203 695 184 673 q 166 650 166 611 l 166 611 l 166 -86 q 166 -146 125 -183 q 85 -220 21 -220 l 21 -220 q -22 -220 -52 -203 q -83 -187 -83 -164 z"},"ൎ":{"ha":0,"x_min":-55,"x_max":54,"o":"m 0 782 l 0 782 q 22 782 38 765 q 54 749 54 723 l 54 723 q 54 681 35 648 q 17 614 0 614 l 0 614 q -18 614 -36 647 q -55 680 -55 723 l -55 723 q -55 749 -39 765 q -23 782 0 782 z"},"൦":{"ha":569,"x_min":42,"x_max":538,"o":"m 42 282 l 42 282 q 42 355 74 409 q 107 464 163 493 q 218 521 285 521 l 285 521 q 352 521 409 492 q 467 463 502 409 q 538 354 538 282 l 538 282 q 538 210 502 156 q 467 102 409 73 q 352 43 285 43 l 285 43 q 218 43 163 72 q 107 101 74 155 q 42 209 42 282 z m 439 282 l 439 282 q 439 366 393 416 q 348 467 273 467 l 273 467 q 226 467 186 445 q 145 424 121 382 q 96 340 96 282 l 96 282 q 96 224 121 182 q 145 141 185 119 q 226 98 273 98 l 273 98 q 318 98 356 119 q 394 139 417 181 q 439 222 439 282 z"},"൧":{"ha":837,"x_min":-39,"x_max":776,"o":"m -39 -76 l -39 -76 q -39 -16 2 19 q 44 54 116 54 l 116 54 l 302 54 l 302 324 q 302 433 364 496 q 427 560 536 560 l 536 560 q 615 560 669 526 q 723 493 750 435 q 776 378 776 306 l 776 306 l 776 0 l 146 0 q 108 0 83 -21 q 59 -42 59 -74 l 59 -74 q 59 -105 84 -126 q 109 -146 146 -146 l 146 -146 l 339 -146 l 339 -200 l 115 -201 q 46 -201 4 -166 q -39 -132 -39 -76 z m 397 54 l 718 54 l 718 313 q 718 401 674 451 q 630 500 554 500 l 554 500 q 477 500 437 453 q 397 407 397 325 l 397 325 l 397 54 z"},"൨":{"ha":794,"x_min":42,"x_max":775,"o":"m 462 54 l 775 54 l 775 0 l 358 0 l 348 17 q 415 59 450 128 q 485 197 485 272 l 485 272 q 485 333 462 385 q 440 437 397 469 q 354 500 296 500 l 296 500 q 245 500 200 473 q 155 446 128 392 q 100 337 100 259 l 100 259 q 100 177 137 114 q 173 51 235 11 l 235 11 q 227 -6 199 -6 l 199 -6 q 166 -6 129 30 q 92 65 67 127 q 42 188 42 261 l 42 261 q 42 356 79 424 q 117 491 178 525 q 240 560 310 560 l 310 560 q 392 560 453 521 q 514 483 546 420 q 578 357 578 286 l 578 286 q 578 219 549 158 q 520 97 462 54 l 462 54 z"},"൩":{"ha":1112,"x_min":42,"x_max":1092,"o":"m 779 54 l 1092 54 l 1092 0 l 676 0 l 666 17 q 732 59 767 128 q 802 197 802 272 l 802 272 q 802 347 780 398 q 758 450 720 475 q 683 500 637 500 l 637 500 q 577 500 538 459 q 499 419 499 355 l 499 355 l 499 0 l 404 0 l 404 354 q 404 422 369 461 q 334 500 272 500 l 272 500 q 229 500 189 478 q 149 455 125 409 q 100 364 100 298 l 100 298 q 100 201 140 130 q 181 59 250 11 l 250 11 q 236 -6 213 -6 l 213 -6 q 181 -6 140 36 q 99 78 70 148 q 42 218 42 298 l 42 298 q 42 382 75 441 q 109 500 163 530 q 217 560 277 560 l 277 560 q 414 560 468 456 l 468 456 q 494 507 541 533 q 589 560 649 560 l 649 560 q 718 560 774 529 q 830 498 863 437 q 896 376 896 290 l 896 290 q 896 222 866 159 q 837 97 779 54 l 779 54 z"},"൪":{"ha":684,"x_min":42,"x_max":696,"o":"m 567 465 l 567 465 q 608 421 630 361 q 652 300 652 230 l 652 230 q 652 165 628 111 q 604 58 556 26 q 509 -5 444 -5 l 444 -5 q 362 -5 313 47 q 263 98 263 184 l 263 184 q 263 272 314 344 q 365 417 447 463 l 447 463 q 396 499 331 501 l 331 501 q 228 501 164 432 q 100 363 100 254 l 100 254 q 100 173 137 112 q 175 51 238 11 l 238 11 q 226 -6 201 -6 l 201 -6 q 168 -6 130 29 q 93 64 67 124 q 42 185 42 256 l 42 256 q 42 349 82 417 q 123 486 190 523 q 258 560 338 560 l 338 560 q 442 560 520 506 l 520 506 q 564 533 586 561 q 608 590 608 631 l 608 631 q 608 661 593 690 q 577 719 554 741 l 554 741 q 563 744 577 744 l 577 744 q 630 744 663 711 q 696 678 696 625 l 696 625 q 696 569 661 529 q 625 490 567 465 z m 560 217 l 560 217 q 560 277 542 332 q 523 386 489 425 l 489 425 q 323 330 323 184 l 323 184 q 323 125 353 88 q 383 51 434 51 l 434 51 q 493 51 527 96 q 560 141 560 217 z"},"൫":{"ha":960,"x_min":47,"x_max":913,"o":"m 47 263 l 47 263 q 47 401 101 505 q 155 609 253 666 q 352 723 482 723 l 482 723 q 630 723 727 654 q 824 585 869 480 q 913 375 913 264 l 913 264 q 913 165 885 91 q 858 18 818 18 l 818 18 q 811 18 802 21 l 802 21 q 828 82 839 142 q 851 201 851 270 l 851 270 q 851 377 806 469 q 760 561 677 615 q 593 669 484 669 l 484 669 q 372 669 285 619 q 199 569 151 476 q 104 384 104 260 l 104 260 q 104 122 148 36 q 192 -51 260 -88 q 327 -125 400 -125 l 400 -125 q 503 -125 561 -75 q 618 -25 618 63 l 618 63 q 618 126 584 162 q 551 198 492 198 l 492 198 l 430 198 l 430 251 l 492 251 q 544 251 578 286 q 612 320 612 373 l 612 373 q 612 431 577 465 q 541 500 483 500 l 483 500 q 417 500 374 466 q 331 433 311 378 q 292 323 292 257 l 292 257 q 292 191 304 139 q 316 87 351 21 l 351 21 q 343 15 330 15 l 330 15 q 309 15 286 41 q 264 67 248 122 q 233 177 233 257 l 233 257 q 233 339 260 408 q 288 477 346 518 q 403 560 489 560 l 489 560 q 585 560 643 510 q 701 460 701 378 l 701 378 q 701 321 668 279 q 635 237 582 226 l 582 226 l 582 222 q 641 209 676 161 q 711 112 711 46 l 711 46 q 711 -63 633 -124 q 555 -186 416 -186 l 416 -186 q 295 -186 212 -125 q 129 -65 88 36 q 47 138 47 263 z"},"൬":{"ha":1263,"x_min":42,"x_max":1222,"o":"m 1222 239 l 1222 239 q 1222 118 1183 25 q 1145 -69 1067 -122 q 990 -175 879 -175 l 879 -175 q 816 -175 777 -158 q 738 -142 738 -114 l 738 -114 q 738 -107 741 -101 l 741 -101 q 792 -122 842 -122 l 842 -122 q 974 -122 1048 -31 q 1123 60 1123 225 l 1123 225 q 1123 318 1100 380 q 1078 442 1042 471 q 1005 500 962 500 l 962 500 q 901 500 862 459 q 823 419 823 355 l 823 355 l 823 0 l 729 0 l 729 373 q 729 431 700 465 q 671 500 613 500 l 613 500 q 558 500 529 466 q 499 433 499 377 l 499 377 l 499 373 l 499 0 l 404 0 l 404 354 q 404 421 368 460 q 333 500 273 500 l 273 500 q 218 500 179 470 q 140 439 120 390 q 100 340 100 283 l 100 283 q 100 197 132 132 q 164 67 238 11 l 238 11 q 226 -6 202 -6 l 202 -6 q 170 -6 132 31 q 94 67 68 133 q 42 198 42 279 l 42 279 q 42 355 71 420 q 100 484 154 522 q 209 560 283 560 l 283 560 q 343 560 387 536 q 432 512 459 469 l 459 469 q 481 512 525 536 q 569 560 625 560 l 625 560 q 685 560 729 534 q 774 509 798 466 l 798 466 q 825 512 871 536 q 917 560 974 560 l 974 560 q 1040 560 1096 524 q 1153 489 1187 417 q 1222 345 1222 239 z"},"൭":{"ha":753,"x_min":42,"x_max":709,"o":"m 201 -114 l 201 -114 q 201 -107 204 -101 l 204 -101 q 255 -122 306 -122 l 306 -122 q 399 -122 469 -80 q 538 -39 574 36 q 610 110 610 205 l 610 205 q 610 296 575 363 q 540 430 482 465 q 424 500 360 500 l 360 500 q 292 500 231 471 q 171 443 134 386 q 97 330 97 250 l 97 250 l 99 226 q 125 269 166 295 q 207 322 259 322 l 259 322 q 331 322 377 276 q 424 229 424 159 l 424 159 q 424 85 377 40 q 329 -6 252 -6 l 252 -6 q 185 -6 137 31 q 89 67 65 126 q 42 185 42 251 l 42 251 q 42 350 89 419 q 137 489 214 524 q 292 560 379 560 l 379 560 q 466 560 542 516 q 618 473 664 392 q 709 311 709 202 l 709 202 q 709 89 666 4 q 622 -82 539 -128 q 456 -175 342 -175 l 342 -175 q 280 -175 240 -158 q 201 -142 201 -114 z m 331 157 l 331 157 q 331 203 304 231 q 277 259 235 259 l 235 259 q 196 259 162 232 q 129 205 108 166 l 108 166 q 127 113 160 83 q 192 52 234 52 l 234 52 q 280 52 305 81 q 331 110 331 157 z"},"൮":{"ha":944,"x_min":42,"x_max":876,"o":"m 777 557 l 876 557 l 876 44 q 876 -16 840 -72 q 804 -128 733 -164 q 662 -200 562 -200 l 562 -200 q 470 -200 411 -183 q 353 -166 353 -138 l 353 -138 q 353 -132 355 -125 l 355 -125 q 389 -135 435 -141 q 482 -146 525 -146 l 525 -146 q 596 -146 649 -125 q 702 -104 733 -71 q 764 -38 773 0 l 773 0 l 358 0 l 348 17 q 415 59 450 128 q 485 197 485 272 l 485 272 q 485 333 462 385 q 440 437 397 469 q 354 500 296 500 l 296 500 q 245 500 200 473 q 155 446 128 392 q 100 337 100 259 l 100 259 q 100 177 137 114 q 173 51 235 11 l 235 11 q 227 -6 199 -6 l 199 -6 q 166 -6 129 30 q 92 65 67 127 q 42 188 42 261 l 42 261 q 42 356 79 424 q 117 491 178 525 q 240 560 310 560 l 310 560 q 392 560 453 521 q 514 483 546 420 q 578 357 578 286 l 578 286 q 578 219 549 158 q 520 97 462 54 l 462 54 l 777 54 l 777 557 z"},"൯":{"ha":1082,"x_min":41,"x_max":1067,"o":"m 938 465 l 938 465 q 979 421 1001 361 q 1023 300 1023 230 l 1023 230 q 1023 165 999 111 q 975 58 927 26 q 880 -5 815 -5 l 815 -5 q 733 -5 684 47 q 634 98 634 184 l 634 184 q 634 272 685 344 q 736 417 818 463 l 818 463 q 767 499 702 501 l 702 501 q 611 501 555 452 q 499 404 499 326 l 499 326 l 499 0 l 404 0 l 404 354 q 404 421 368 460 q 332 500 272 500 l 272 500 q 218 500 179 470 q 140 439 120 390 q 100 340 100 283 l 100 283 q 100 197 131 132 q 163 67 238 11 l 238 11 q 226 -6 201 -6 l 201 -6 q 169 -6 132 31 q 94 67 67 133 q 41 198 41 279 l 41 279 q 41 355 70 420 q 99 484 154 522 q 208 560 282 560 l 282 560 q 351 560 399 528 q 448 497 473 442 l 473 442 q 543 560 709 560 l 709 560 q 813 560 891 506 l 891 506 q 935 533 957 561 q 979 590 979 631 l 979 631 q 979 661 964 690 q 948 719 925 741 l 925 741 q 934 744 948 744 l 948 744 q 1001 744 1034 711 q 1067 678 1067 625 l 1067 625 q 1067 569 1032 529 q 996 490 938 465 z m 931 217 l 931 217 q 931 277 913 332 q 894 386 860 425 l 860 425 q 694 330 694 184 l 694 184 q 694 125 724 88 q 754 51 805 51 l 805 51 q 864 51 898 96 q 931 141 931 217 z"},"൰":{"ha":956,"x_min":-220,"x_max":915,"o":"m 915 256 l 915 256 q 915 172 881 113 q 847 54 793 24 q 739 -6 679 -6 l 679 -6 q 543 -6 488 97 l 488 97 q 464 46 419 20 q 375 -6 317 -6 l 317 -6 q 269 -6 230 18 q 192 42 168 91 l 168 91 q 167 19 139 -48 q 111 -115 55 -157 q 0 -200 -79 -200 l -79 -200 q -132 -200 -176 -178 q -220 -156 -220 -128 l -220 -128 q -220 -122 -217 -115 l -217 -115 q -157 -146 -101 -146 l -101 -146 q -10 -146 36 -89 q 83 -31 83 70 l 83 70 l 83 557 l 182 557 l 182 242 q 186 142 223 98 q 260 54 319 54 l 319 54 q 379 54 418 94 q 458 135 458 198 l 458 198 l 458 554 l 552 554 l 552 199 q 552 131 587 93 q 622 54 684 54 l 684 54 q 728 54 767 76 q 807 99 831 144 q 856 190 856 256 l 856 256 q 856 353 816 424 q 775 495 706 542 l 706 542 q 720 560 743 560 l 743 560 q 775 560 816 518 q 857 476 886 406 q 915 335 915 256 z"},"൱":{"ha":946,"x_min":42,"x_max":897,"o":"m 897 239 l 897 239 q 897 118 858 25 q 820 -69 743 -122 q 666 -175 554 -175 l 554 -175 q 492 -175 452 -158 q 413 -142 413 -114 l 413 -114 q 413 -107 416 -101 l 416 -101 q 467 -122 518 -122 l 518 -122 q 649 -122 724 -31 q 798 60 798 225 l 798 225 q 798 318 776 380 q 753 442 717 471 q 681 500 637 500 l 637 500 q 577 500 538 459 q 499 419 499 355 l 499 355 l 499 0 l 404 0 l 404 354 q 404 422 369 461 q 334 500 272 500 l 272 500 q 229 500 189 478 q 149 455 125 409 q 100 364 100 298 l 100 298 q 100 201 140 130 q 181 59 250 11 l 250 11 q 236 -6 213 -6 l 213 -6 q 181 -6 140 36 q 99 78 70 148 q 42 218 42 298 l 42 298 q 42 382 75 441 q 109 500 163 530 q 217 560 277 560 l 277 560 q 414 560 468 456 l 468 456 q 494 507 541 533 q 589 560 649 560 l 649 560 q 715 560 772 524 q 828 489 863 417 q 897 345 897 239 z"},"൲":{"ha":1397,"x_min":42,"x_max":1375,"o":"m 1375 423 l 1375 423 q 1375 355 1320 317 q 1266 278 1155 278 l 1155 278 l 988 278 q 990 260 990 236 l 990 236 q 990 159 963 104 q 936 49 889 22 q 842 -6 784 -6 l 784 -6 q 722 -6 683 33 q 644 73 644 134 l 644 134 q 644 184 671 226 q 698 269 753 295 q 808 322 887 324 l 887 324 q 868 407 814 453 q 760 500 681 500 l 681 500 q 601 500 550 456 q 499 413 499 346 l 499 346 l 499 0 l 404 0 l 404 354 q 404 422 369 461 q 334 500 272 500 l 272 500 q 229 500 189 478 q 149 455 125 409 q 100 364 100 298 l 100 298 q 100 201 140 130 q 181 59 250 11 l 250 11 q 236 -6 213 -6 l 213 -6 q 181 -6 140 36 q 99 78 70 148 q 42 218 42 298 l 42 298 q 42 382 75 441 q 109 500 163 530 q 217 560 277 560 l 277 560 q 348 560 396 532 q 444 504 470 452 l 470 452 q 501 505 560 532 q 619 560 693 560 l 693 560 q 805 560 882 497 q 959 434 982 324 l 982 324 l 1102 324 q 1073 370 1073 418 l 1073 418 q 1073 480 1116 520 q 1159 560 1226 560 l 1226 560 q 1293 560 1334 522 q 1375 484 1375 423 z m 1279 418 l 1279 418 q 1279 455 1258 477 q 1237 500 1205 500 l 1205 500 q 1165 500 1146 475 q 1127 450 1127 414 l 1127 414 q 1127 367 1160 325 l 1160 325 q 1215 328 1247 354 q 1279 379 1279 418 z m 896 233 l 896 233 l 895 278 q 802 277 749 238 q 696 200 696 134 l 696 134 q 696 98 718 76 q 740 54 773 54 l 773 54 q 831 54 864 101 q 896 149 896 233 z"},"൳":{"ha":720,"x_min":42,"x_max":734,"o":"m 97 250 l 99 226 q 125 269 166 295 q 207 322 259 322 l 259 322 q 331 322 377 276 q 424 229 424 159 l 424 159 q 424 85 377 40 q 329 -6 252 -6 l 252 -6 q 185 -6 137 29 q 89 64 65 121 q 42 178 42 242 l 42 242 q 42 326 86 386 q 130 446 201 476 q 271 507 350 507 l 350 507 l 734 507 l 734 447 l 331 447 q 272 447 219 425 q 165 402 131 357 q 97 313 97 250 l 97 250 z m 331 157 l 331 157 q 331 203 304 231 q 277 259 235 259 l 235 259 q 196 259 162 232 q 129 205 108 166 l 108 166 q 127 113 160 83 q 192 52 234 52 l 234 52 q 280 52 305 81 q 331 110 331 157 z"},"൴":{"ha":906,"x_min":42,"x_max":864,"o":"m 864 192 l 864 192 q 864 106 812 51 q 759 -5 675 -5 l 675 -5 q 605 -5 562 40 q 519 84 519 155 l 519 155 l 519 488 q 470 500 419 500 l 419 500 q 325 500 251 468 q 178 436 138 379 q 97 322 97 250 l 97 250 l 99 226 q 125 269 166 295 q 207 322 259 322 l 259 322 q 331 322 377 276 q 424 229 424 159 l 424 159 q 424 85 377 40 q 329 -6 252 -6 l 252 -6 q 185 -6 137 29 q 89 64 65 121 q 42 178 42 242 l 42 242 q 42 337 90 409 q 139 481 226 520 q 313 560 424 560 l 424 560 q 473 560 519 552 l 519 552 l 519 789 l 579 789 l 579 540 q 713 502 789 410 q 864 318 864 192 z m 772 194 l 772 194 q 772 286 721 359 q 669 432 579 469 l 579 469 l 579 155 q 579 108 602 80 q 625 51 668 51 l 668 51 q 715 51 744 91 q 772 130 772 194 z m 108 166 l 108 166 q 127 113 160 83 q 192 52 234 52 l 234 52 q 280 52 305 81 q 331 110 331 157 l 331 157 q 331 203 304 231 q 277 259 235 259 l 235 259 q 196 259 162 232 q 129 205 108 166 z"},"൵":{"ha":1218,"x_min":42,"x_max":1204,"o":"m 1075 465 l 1075 465 q 1116 421 1138 361 q 1160 300 1160 230 l 1160 230 q 1160 165 1136 111 q 1111 58 1064 26 q 1017 -5 952 -5 l 952 -5 q 870 -5 820 47 q 771 98 771 184 l 771 184 q 771 272 822 344 q 873 417 955 463 l 955 463 q 904 499 839 501 l 839 501 q 748 501 692 452 q 635 404 635 326 l 635 326 l 635 0 l 537 0 l 537 254 q 537 333 506 389 q 476 445 426 472 q 377 500 321 500 l 321 500 q 263 500 212 471 q 161 443 129 386 q 97 330 97 250 l 97 250 l 99 226 q 125 269 166 295 q 207 322 259 322 l 259 322 q 331 322 377 276 q 424 229 424 159 l 424 159 q 424 85 377 40 q 329 -6 252 -6 l 252 -6 q 185 -6 137 31 q 89 67 65 126 q 42 185 42 251 l 42 251 q 42 350 84 419 q 126 489 194 524 q 263 560 340 560 l 340 560 q 420 560 489 523 q 558 486 596 417 l 596 417 q 630 488 693 524 q 757 560 846 560 l 846 560 q 950 560 1028 506 l 1028 506 q 1072 533 1094 561 q 1116 590 1116 631 l 1116 631 q 1116 661 1101 690 q 1085 719 1062 741 l 1062 741 q 1070 744 1084 744 l 1084 744 q 1138 744 1171 711 q 1204 678 1204 625 l 1204 625 q 1204 569 1168 529 q 1133 490 1075 465 z m 1068 217 l 1068 217 q 1068 277 1049 332 q 1031 386 997 425 l 997 425 q 831 330 831 184 l 831 184 q 831 125 861 88 q 891 51 942 51 l 942 51 q 1001 51 1034 96 q 1068 141 1068 217 z m 108 166 l 108 166 q 127 113 160 83 q 192 52 234 52 l 234 52 q 280 52 305 81 q 331 110 331 157 l 331 157 q 331 203 304 231 q 277 259 235 259 l 235 259 q 196 259 162 232 q 129 205 108 166 z"},"൹":{"ha":1129,"x_min":42,"x_max":1110,"o":"m 1110 319 l 1110 273 l 961 273 l 961 261 q 961 172 934 112 q 907 52 864 23 q 822 -6 774 -6 l 774 -6 q 716 -6 677 34 q 639 74 639 134 l 639 134 q 639 180 664 219 q 689 259 740 285 q 790 312 861 318 l 861 318 q 846 403 795 452 q 745 500 671 500 l 671 500 q 596 500 547 456 q 499 413 499 346 l 499 346 l 499 0 l 404 0 l 404 354 q 404 422 369 461 q 334 500 272 500 l 272 500 q 229 500 189 478 q 149 455 125 409 q 100 364 100 298 l 100 298 q 100 201 140 130 q 181 59 250 11 l 250 11 q 236 -6 213 -6 l 213 -6 q 181 -6 140 36 q 99 78 70 148 q 42 218 42 298 l 42 298 q 42 382 75 441 q 109 500 163 530 q 217 560 277 560 l 277 560 q 347 560 396 532 q 444 504 470 453 l 470 453 q 500 505 556 532 q 612 560 683 560 l 683 560 q 793 560 868 495 q 942 430 957 319 l 957 319 l 1110 319 z m 867 243 l 867 243 l 866 272 q 787 266 742 229 q 696 191 696 134 l 696 134 q 696 98 715 76 q 734 54 764 54 l 764 54 q 790 54 813 74 q 837 94 852 136 q 867 179 867 243 z"},"ൟ":{"ha":1253,"x_min":49,"x_max":1204,"o":"m 927 240 l 927 240 q 927 172 904 116 q 881 61 836 28 q 791 -5 729 -5 l 729 -5 q 645 -5 596 53 q 548 111 548 209 l 548 209 q 548 286 583 362 q 618 438 674 493 l 674 493 q 650 500 625 501 l 625 501 q 518 501 451 432 q 385 364 385 254 l 385 254 q 385 173 422 112 q 459 51 522 11 l 522 11 q 510 -6 486 -6 l 486 -6 q 453 -6 415 29 q 377 64 352 124 q 326 185 326 256 l 326 256 q 326 349 368 418 q 410 486 480 523 q 550 560 632 560 l 632 560 q 720 560 787 519 q 854 478 891 405 q 927 332 927 240 z m 726 467 l 726 467 q 669 414 639 344 q 608 274 608 199 l 608 199 q 608 132 638 92 q 668 51 719 51 l 719 51 q 771 51 803 97 q 835 142 835 229 l 835 229 q 835 300 807 365 q 779 430 726 467 z m 263 257 l 263 257 q 263 210 233 180 q 203 150 160 150 l 160 150 q 111 150 80 180 q 49 210 49 257 l 49 257 q 49 303 80 333 q 111 362 160 362 l 160 362 q 204 362 233 332 q 263 302 263 257 z m 1204 257 l 1204 257 q 1204 210 1174 180 q 1145 150 1101 150 l 1101 150 q 1053 150 1021 180 q 990 210 990 257 l 990 257 q 990 303 1021 333 q 1052 362 1101 362 l 1101 362 q 1146 362 1175 332 q 1204 302 1204 257 z m 191 257 l 191 257 q 191 285 177 300 q 162 315 142 315 l 142 315 q 121 315 106 300 q 91 284 91 257 l 91 257 q 91 229 106 213 q 121 198 142 198 l 142 198 q 163 198 177 213 q 191 228 191 257 z m 1132 257 l 1132 257 q 1132 285 1118 300 q 1104 315 1083 315 l 1083 315 q 1062 315 1047 300 q 1032 284 1032 257 l 1032 257 q 1032 229 1047 213 q 1062 198 1083 198 l 1083 198 q 1104 198 1118 213 q 1132 228 1132 257 z"},"।":{"ha":437,"x_min":171,"x_max":266,"o":"m 171 0 l 171 554 l 266 554 l 266 0 l 171 0 z"},"॥":{"ha":659,"x_min":171,"x_max":488,"o":"m 171 0 l 171 554 l 266 554 l 266 0 l 171 0 z m 393 0 l 393 554 l 488 554 l 488 0 l 393 0 z"},"₹":{"ha":589,"x_min":59,"x_max":530,"o":"m 530 544 l 530 497 l 418 497 q 403 327 184 318 l 184 318 l 297 125 q 333 62 387 62 l 387 62 q 399 62 411 64 l 411 64 q 411 45 401 29 q 390 13 372 3 q 354 -6 332 -6 l 332 -6 q 295 -6 259 18 q 223 42 195 93 l 195 93 l 59 337 l 59 365 l 142 365 q 202 365 238 378 q 273 392 291 420 q 308 449 311 497 l 311 497 l 59 497 l 59 544 l 311 544 q 308 589 291 616 q 274 643 242 655 q 210 667 157 667 l 157 667 l 59 667 l 59 714 l 530 714 l 530 667 l 358 667 q 413 624 419 544 l 419 544 l 530 544 z"},"​":{"ha":0,"x_min":0,"x_max":0,"o":""},"‌":{"ha":0,"x_min":-21,"x_max":21,"o":"m -21 -133 l -21 628 l 21 628 l 21 -133 l -21 -133 z"},"‍":{"ha":0,"x_min":-109,"x_max":109,"o":"m -21 -133 l -21 535 l -83 473 l -109 500 l -27 582 l -109 663 l -83 690 l 0 607 l 83 690 l 109 663 l 27 582 l 109 500 l 83 473 l 21 535 l 21 -133 l -21 -133 z"},"◌":{"ha":594,"x_min":48,"x_max":546,"o":"m 271 514 l 271 514 q 271 524 279 532 q 287 540 297 540 l 297 540 q 308 540 315 532 q 323 524 323 514 l 323 514 q 323 503 315 496 q 308 488 297 488 l 297 488 q 287 488 279 496 q 271 503 271 514 z m 187 496 l 187 496 q 187 506 195 514 q 203 522 213 522 l 213 522 q 224 522 231 514 q 239 506 239 496 l 239 496 q 239 485 231 478 q 224 470 213 470 l 213 470 q 203 470 195 478 q 187 485 187 496 z m 355 496 l 355 496 q 355 506 363 514 q 371 522 381 522 l 381 522 q 392 522 399 514 q 407 506 407 496 l 407 496 q 407 485 399 478 q 392 470 381 470 l 381 470 q 371 470 363 478 q 355 485 355 496 z m 113 449 l 113 449 q 113 459 121 467 q 128 475 139 475 l 139 475 q 149 475 157 467 q 165 459 165 449 l 165 449 q 165 438 157 431 q 149 423 139 423 l 139 423 q 128 423 121 431 q 113 438 113 449 z m 429 449 l 429 449 q 429 459 437 467 q 444 475 455 475 l 455 475 q 466 475 473 467 q 481 459 481 449 l 481 449 q 481 438 473 431 q 466 423 455 423 l 455 423 q 444 423 437 431 q 429 438 429 449 z m 66 375 l 66 375 q 66 386 74 393 q 82 401 92 401 l 92 401 q 103 401 110 393 q 118 386 118 375 l 118 375 q 118 364 110 357 q 103 349 92 349 l 92 349 q 82 349 74 357 q 66 364 66 375 z m 476 375 l 476 375 q 476 386 484 393 q 491 401 502 401 l 502 401 q 513 401 520 393 q 528 386 528 375 l 528 375 q 528 364 520 357 q 513 349 502 349 l 502 349 q 491 349 484 357 q 476 364 476 375 z m 48 291 l 48 291 q 48 302 56 309 q 63 317 74 317 l 74 317 q 84 317 92 309 q 100 302 100 291 l 100 291 q 100 280 92 273 q 84 265 74 265 l 74 265 q 63 265 56 273 q 48 280 48 291 z m 494 291 l 494 291 q 494 302 502 309 q 509 317 520 317 l 520 317 q 531 317 538 309 q 546 302 546 291 l 546 291 q 546 280 538 273 q 531 265 520 265 l 520 265 q 509 265 502 273 q 494 280 494 291 z m 66 207 l 66 207 q 66 218 74 225 q 82 233 92 233 l 92 233 q 103 233 110 225 q 118 218 118 207 l 118 207 q 118 196 110 189 q 103 181 92 181 l 92 181 q 82 181 74 189 q 66 196 66 207 z m 476 207 l 476 207 q 476 218 484 225 q 491 233 502 233 l 502 233 q 513 233 520 225 q 528 218 528 207 l 528 207 q 528 196 520 189 q 513 181 502 181 l 502 181 q 491 181 484 189 q 476 196 476 207 z m 113 133 l 113 133 q 113 144 121 151 q 128 159 139 159 l 139 159 q 149 159 157 151 q 165 144 165 133 l 165 133 q 165 123 157 115 q 149 107 139 107 l 139 107 q 128 107 121 115 q 113 123 113 133 z m 429 133 l 429 133 q 429 144 437 151 q 444 159 455 159 l 455 159 q 466 159 473 151 q 481 144 481 133 l 481 133 q 481 123 473 115 q 466 107 455 107 l 455 107 q 444 107 437 115 q 429 123 429 133 z m 187 86 l 187 86 q 187 97 195 104 q 203 112 213 112 l 213 112 q 224 112 231 104 q 239 97 239 86 l 239 86 q 239 75 231 68 q 224 60 213 60 l 213 60 q 203 60 195 68 q 187 75 187 86 z m 355 86 l 355 86 q 355 97 363 104 q 371 112 381 112 l 381 112 q 392 112 399 104 q 407 97 407 86 l 407 86 q 407 75 399 68 q 392 60 381 60 l 381 60 q 371 60 363 68 q 355 75 355 86 z m 271 68 l 271 68 q 271 79 279 86 q 287 94 297 94 l 297 94 q 308 94 315 86 q 323 79 323 68 l 323 68 q 323 58 315 50 q 308 42 297 42 l 297 42 q 287 42 279 50 q 271 58 271 68 z"},"!":{"ha":333,"x_min":103,"x_max":229,"o":"m 143 201 l 108 714 l 224 714 l 189 201 l 143 201 z m 103 61 l 103 61 q 103 129 166 129 l 166 129 q 229 129 229 61 l 229 61 q 229 -7 166 -7 l 166 -7 q 103 -7 103 61 z"},"\"":{"ha":408,"x_min":57,"x_max":351,"o":"m 87 479 l 57 714 l 163 714 l 133 479 l 87 479 z m 275 479 l 245 714 l 351 714 l 321 479 l 275 479 z"},"#":{"ha":559,"x_min":25,"x_max":534,"o":"m 79 0 l 117 203 l 25 203 l 25 262 l 128 262 l 166 458 l 57 458 l 57 517 l 177 517 l 213 714 l 274 714 l 237 517 l 376 517 l 413 714 l 473 714 l 436 517 l 534 517 l 534 458 l 425 458 l 388 262 l 502 262 l 502 203 l 376 203 l 338 0 l 278 0 l 316 203 l 177 203 l 139 0 l 79 0 z m 189 262 l 328 262 l 365 458 l 226 458 l 189 262 z"},"%":{"ha":896,"x_min":45,"x_max":851,"o":"m 45 503 l 45 503 q 45 607 85 666 q 126 724 210 724 l 210 724 q 290 724 332 665 q 373 606 373 503 l 373 503 q 373 399 331 340 q 290 280 209 280 l 209 280 q 126 280 85 339 q 45 398 45 503 z m 235 0 l 592 714 l 657 714 l 301 0 l 235 0 z m 282 503 l 282 503 q 282 592 266 637 q 249 682 210 682 l 210 682 q 170 682 152 637 q 135 591 135 503 l 135 503 q 135 413 152 367 q 170 321 209 321 l 209 321 q 249 321 265 367 q 282 413 282 503 z m 523 213 l 523 213 q 523 318 563 376 q 604 434 688 434 l 688 434 q 768 434 810 375 q 851 316 851 213 l 851 213 q 851 110 809 50 q 768 -10 687 -10 l 687 -10 q 604 -10 563 49 q 523 108 523 213 z m 760 213 l 760 213 q 760 302 743 347 q 727 392 688 392 l 688 392 q 648 392 630 347 q 613 301 613 213 l 613 213 q 613 123 630 77 q 648 31 687 31 l 687 31 q 727 31 743 76 q 760 122 760 213 z"},"'":{"ha":220,"x_min":57,"x_max":163,"o":"m 87 479 l 57 714 l 163 714 l 133 479 l 87 479 z"},"(":{"ha":346,"x_min":57,"x_max":314,"o":"m 57 317 l 57 317 q 57 500 117 602 q 177 705 314 760 l 314 760 l 314 715 q 250 676 216 615 q 182 554 172 482 q 161 411 161 317 l 161 317 q 161 223 172 151 q 182 80 216 18 q 250 -43 314 -82 l 314 -82 l 314 -128 q 178 -74 117 30 q 57 134 57 317 z"},")":{"ha":346,"x_min":32,"x_max":289,"o":"m 32 -128 l 32 -82 q 97 -43 130 19 q 164 80 174 152 q 185 223 185 317 l 185 317 q 185 411 174 482 q 164 554 130 615 q 97 676 32 715 l 32 715 l 32 760 q 168 706 229 603 q 289 500 289 317 l 289 317 q 289 135 229 31 q 168 -74 32 -128 l 32 -128 z"},"*":{"ha":500,"x_min":41,"x_max":453,"o":"m 204 378 l 229 536 l 76 441 l 41 519 l 209 569 l 41 619 l 76 698 l 230 601 l 204 760 l 291 760 l 263 602 l 418 696 l 453 618 l 284 569 l 453 520 l 418 443 l 263 536 l 291 378 l 204 378 z"},"+":{"ha":559,"x_min":65,"x_max":494,"o":"m 249 143 l 249 328 l 65 328 l 65 387 l 249 387 l 249 572 l 309 572 l 309 387 l 494 387 l 494 328 l 309 328 l 309 143 l 249 143 z"},",":{"ha":250,"x_min":30,"x_max":194,"o":"m 30 -154 l 30 -112 q 125 -81 125 -22 l 125 -22 q 125 -10 117 -3 q 110 4 94 13 l 94 13 q 68 27 60 40 q 52 53 52 70 l 52 70 q 52 98 70 113 q 88 129 117 129 l 117 129 q 151 129 172 105 q 194 81 194 42 l 194 42 q 194 -26 154 -78 q 115 -129 30 -154 l 30 -154 z"},"-":{"ha":310,"x_min":25,"x_max":285,"o":"m 25 235 l 25 310 l 285 310 l 285 235 l 25 235 z"},".":{"ha":250,"x_min":62,"x_max":188,"o":"m 62 61 l 62 61 q 62 129 125 129 l 125 129 q 188 129 188 61 l 188 61 q 188 -7 125 -7 l 125 -7 q 62 -7 62 61 z"},"/":{"ha":288,"x_min":0,"x_max":288,"o":"m 0 -121 l 230 760 l 288 760 l 59 -121 l 0 -121 z"},":":{"ha":286,"x_min":81,"x_max":207,"o":"m 81 473 l 81 473 q 81 541 144 541 l 144 541 q 207 541 207 473 l 207 473 q 207 405 144 405 l 144 405 q 81 405 81 473 z m 81 61 l 81 61 q 81 129 144 129 l 144 129 q 207 129 207 61 l 207 61 q 207 -7 144 -7 l 144 -7 q 81 -7 81 61 z"},";":{"ha":286,"x_min":48,"x_max":212,"o":"m 81 473 l 81 473 q 81 541 144 541 l 144 541 q 207 541 207 473 l 207 473 q 207 405 144 405 l 144 405 q 81 405 81 473 z m 48 -154 l 48 -112 q 143 -81 143 -22 l 143 -22 q 143 -10 135 -3 q 128 4 112 13 l 112 13 q 86 28 78 40 q 70 53 70 70 l 70 70 q 70 98 88 113 q 106 129 135 129 l 135 129 q 169 129 190 105 q 212 81 212 42 l 212 42 q 212 -26 172 -78 q 133 -129 48 -154 l 48 -154 z"},"<":{"ha":559,"x_min":65,"x_max":494,"o":"m 494 110 l 65 340 l 65 375 l 494 606 l 494 539 l 158 357 l 494 177 l 494 110 z"},"=":{"ha":559,"x_min":65,"x_max":494,"o":"m 65 426 l 65 485 l 494 485 l 494 426 l 65 426 z m 65 229 l 65 288 l 494 288 l 494 229 l 65 229 z"},">":{"ha":559,"x_min":65,"x_max":494,"o":"m 65 110 l 65 177 l 401 357 l 65 539 l 65 606 l 494 375 l 494 340 l 65 110 z"},"?":{"ha":500,"x_min":43,"x_max":449,"o":"m 194 201 l 194 353 q 275 386 311 440 q 347 494 347 560 l 347 560 q 347 614 320 645 q 293 675 238 675 l 238 675 q 179 675 153 639 q 126 604 126 547 l 126 547 q 89 547 66 564 q 43 581 43 612 l 43 612 q 43 665 92 695 q 141 724 230 724 l 230 724 q 329 724 389 674 q 449 625 449 543 l 449 543 q 449 463 400 409 q 352 354 255 314 l 255 314 l 255 201 l 194 201 z m 160 61 l 160 61 q 160 129 223 129 l 223 129 q 286 129 286 61 l 286 61 q 286 -7 223 -7 l 223 -7 q 160 -7 160 61 z"},"[":{"ha":360,"x_min":100,"x_max":323,"o":"m 100 -128 l 100 760 l 323 760 l 323 718 l 280 718 q 233 718 216 700 q 198 683 198 646 l 198 646 l 198 -14 q 198 -51 216 -68 q 233 -86 280 -86 l 280 -86 l 323 -86 l 323 -128 l 100 -128 z"},"\\":{"ha":288,"x_min":0,"x_max":288,"o":"m 229 -121 l 0 760 l 58 760 l 288 -121 l 229 -121 z"},"]":{"ha":360,"x_min":37,"x_max":260,"o":"m 37 -128 l 37 -86 l 80 -86 q 127 -86 145 -69 q 162 -51 162 -14 l 162 -14 l 162 646 q 162 683 144 700 q 126 718 80 718 l 80 718 l 37 718 l 37 760 l 260 760 l 260 -128 l 37 -128 z"},"^":{"ha":559,"x_min":51,"x_max":507,"o":"m 51 266 l 261 714 l 296 714 l 507 266 l 440 266 l 278 622 l 118 266 l 51 266 z"},"_":{"ha":459,"x_min":-5,"x_max":464,"o":"m -5 -142 l -5 -83 l 464 -83 l 464 -142 l -5 -142 z"},"{":{"ha":428,"x_min":50,"x_max":378,"o":"m 168 16 l 168 16 l 168 190 q 168 247 137 270 q 106 293 50 296 l 50 296 l 50 338 q 105 339 137 363 q 168 386 168 443 l 168 443 l 168 617 q 168 686 205 723 q 242 760 312 760 l 312 760 l 378 760 l 378 717 l 348 717 q 305 717 285 691 q 266 665 266 612 l 266 612 l 266 441 q 266 391 238 359 q 209 327 155 318 l 155 318 l 155 317 q 211 308 239 276 q 266 244 266 193 l 266 193 l 266 20 q 266 -32 286 -59 q 305 -85 348 -85 l 348 -85 l 378 -85 l 378 -128 l 312 -128 q 243 -128 205 -89 q 168 -51 168 16 z"},"|":{"ha":559,"x_min":249,"x_max":309,"o":"m 249 -240 l 249 760 l 309 760 l 309 -240 l 249 -240 z"},"}":{"ha":428,"x_min":50,"x_max":378,"o":"m 50 -128 l 50 -85 l 80 -85 q 123 -85 143 -59 q 162 -32 162 20 l 162 20 l 162 193 q 162 244 190 276 q 217 308 273 317 l 273 317 l 273 318 q 219 327 190 359 q 162 391 162 441 l 162 441 l 162 612 q 162 665 143 691 q 124 717 80 717 l 80 717 l 50 717 l 50 760 l 116 760 q 186 760 223 723 q 260 686 260 617 l 260 617 l 260 443 q 260 386 291 363 q 323 339 378 338 l 378 338 l 378 296 q 322 293 291 270 q 260 247 260 190 l 260 190 l 260 16 q 260 -51 223 -89 q 186 -128 116 -128 l 116 -128 l 50 -128 z"},"~":{"ha":559,"x_min":54,"x_max":504,"o":"m 176 444 l 176 444 q 208 444 235 429 q 262 414 301 378 l 301 378 q 329 353 346 340 q 364 328 383 328 l 383 328 q 409 328 423 357 q 437 385 444 444 l 444 444 l 504 444 q 496 371 470 320 q 444 269 382 269 l 382 269 q 349 269 321 285 q 293 301 262 332 l 262 332 q 232 360 215 373 q 197 385 176 385 l 176 385 q 147 385 133 357 q 119 329 113 269 l 113 269 l 54 269 q 61 345 87 394 q 112 444 176 444 z"},"­":{"ha":310,"x_min":25,"x_max":285,"o":"m 25 235 l 25 310 l 285 310 l 285 235 l 25 235 z"},"–":{"ha":500,"x_min":-5,"x_max":505,"o":"m -5 239 l -5 298 l 505 298 l 505 239 l -5 239 z"},"—":{"ha":1000,"x_min":-5,"x_max":1005,"o":"m -5 239 l -5 298 l 1005 298 l 1005 239 l -5 239 z"},"‘":{"ha":250,"x_min":56,"x_max":220,"o":"m 56 519 l 56 519 q 56 587 96 639 q 135 690 220 715 l 220 715 l 220 673 q 125 642 125 583 l 125 583 q 125 571 132 564 q 140 557 156 548 l 156 548 q 176 537 187 525 q 198 513 198 491 l 198 491 q 198 463 180 448 q 162 432 133 432 l 133 432 q 99 432 78 456 q 56 480 56 519 z"},"’":{"ha":250,"x_min":30,"x_max":194,"o":"m 30 431 l 30 473 q 125 504 125 563 l 125 563 q 125 575 118 582 q 110 589 94 598 l 94 598 q 74 609 63 621 q 52 633 52 655 l 52 655 q 52 683 70 698 q 88 714 117 714 l 117 714 q 151 714 172 690 q 194 666 194 627 l 194 627 q 194 559 154 507 q 115 456 30 431 l 30 431 z"},"“":{"ha":450,"x_min":56,"x_max":420,"o":"m 56 519 l 56 519 q 56 587 96 639 q 135 690 220 715 l 220 715 l 220 673 q 125 642 125 583 l 125 583 q 125 571 132 564 q 140 557 156 548 l 156 548 q 176 537 187 525 q 198 513 198 491 l 198 491 q 198 463 180 448 q 162 432 133 432 l 133 432 q 99 432 78 456 q 56 480 56 519 z m 256 519 l 256 519 q 256 587 295 639 q 335 690 420 715 l 420 715 l 420 673 q 325 642 325 583 l 325 583 q 325 571 333 564 q 340 557 356 548 l 356 548 q 376 537 387 525 q 398 513 398 491 l 398 491 q 398 463 380 448 q 362 432 333 432 l 333 432 q 299 432 277 456 q 256 480 256 519 z"},"”":{"ha":450,"x_min":30,"x_max":394,"o":"m 30 431 l 30 473 q 125 504 125 563 l 125 563 q 125 575 118 582 q 110 589 94 598 l 94 598 q 74 609 63 621 q 52 633 52 655 l 52 655 q 52 683 70 698 q 88 714 117 714 l 117 714 q 151 714 172 690 q 194 666 194 627 l 194 627 q 194 559 154 507 q 115 456 30 431 l 30 431 z m 230 431 l 230 473 q 325 504 325 563 l 325 563 q 325 575 318 582 q 311 589 294 598 l 294 598 q 274 609 263 621 q 252 633 252 655 l 252 655 q 252 683 270 698 q 288 714 317 714 l 317 714 q 351 714 373 690 q 394 666 394 627 l 394 627 q 394 559 354 507 q 315 456 230 431 l 230 431 z"},"…":{"ha":858,"x_min":80,"x_max":778,"o":"m 80 61 l 80 61 q 80 129 143 129 l 143 129 q 206 129 206 61 l 206 61 q 206 -7 143 -7 l 143 -7 q 80 -7 80 61 z m 366 61 l 366 61 q 366 129 429 129 l 429 129 q 492 129 492 61 l 492 61 q 492 -7 429 -7 l 429 -7 q 366 -7 366 61 z m 652 61 l 652 61 q 652 129 715 129 l 715 129 q 778 129 778 61 l 778 61 q 778 -7 715 -7 l 715 -7 q 652 -7 652 61 z"},"×":{"ha":559,"x_min":71,"x_max":487,"o":"m 113 150 l 71 193 l 237 359 l 71 524 l 113 566 l 279 400 l 445 567 l 487 524 l 321 358 l 487 192 l 445 150 l 279 316 l 113 150 z"},"÷":{"ha":559,"x_min":65,"x_max":494,"o":"m 229 547 l 229 547 q 229 602 280 602 l 280 602 q 331 602 331 547 l 331 547 q 331 492 280 492 l 280 492 q 229 492 229 547 z m 65 328 l 65 387 l 494 387 l 494 328 l 65 328 z m 229 168 l 229 168 q 229 223 280 223 l 280 223 q 331 223 331 168 l 331 168 q 331 113 280 113 l 280 113 q 229 113 229 168 z"},"−":{"ha":559,"x_min":65,"x_max":494,"o":"m 65 328 l 65 387 l 494 387 l 494 328 l 65 328 z"},"̇":{"ha":0,"x_min":-55,"x_max":54,"o":"m 0 782 l 0 782 q 22 782 38 765 q 54 749 54 723 l 54 723 q 54 681 35 648 q 17 614 0 614 l 0 614 q -18 614 -36 647 q -55 680 -55 723 l -55 723 q -55 749 -39 765 q -23 782 0 782 z"},"̣":{"ha":0,"x_min":-55,"x_max":54,"o":"m 0 -68 l 0 -68 q 22 -68 38 -84 q 54 -101 54 -126 l 54 -126 q 54 -168 35 -202 q 17 -235 0 -235 l 0 -235 q -18 -235 -36 -202 q -55 -169 -55 -126 l -55 -126 q -55 -101 -39 -84 q -23 -68 0 -68 z"}}}
